<svg width="254" height="333" viewBox="0 0 254 333" fill="none" xmlns="http://www.w3.org/2000/svg">
<path d="M135.588 61.7915C136.416 58.1452 136.952 54.5772 137.918 50.9425C142.483 33.7587 151.958 17.7953 167.789 8.83012C173.587 5.75577 181.415 2.55194 188.049 3.97154C190.558 4.21125 193.882 7.56275 191.47 9.86687C188.454 12.749 182.782 14.7588 179.085 16.7595C176.849 17.992 174.686 19.3519 172.606 20.8322C157.244 31.7874 148.798 45.648 142.293 62.9057C150.598 66.2435 155.242 68.3311 161.865 74.5163C167.646 79.915 172.999 89.797 173.063 97.739C173.363 99.809 173.224 101.974 173.046 104.057C180.244 112.542 183.802 121.964 183.426 133.075C202.407 131.884 221.345 129.663 240.342 128.539C246.764 128.159 250.312 127.309 253.985 133.973C254.201 138.773 252.209 145.198 251.002 150.027C249.561 155.675 248.156 161.332 246.787 166.998C245 174.593 243.422 182.258 241.419 189.792C240.961 191.511 239.672 192.747 238.415 193.92C239.497 200.819 234.814 199.776 229.828 200.52C229.389 203.151 228.589 204.798 226.564 206.61C216.758 215.387 200.89 220.303 188.048 218.551C193.858 225.847 197.883 227.234 205.462 232.554C218.802 241.921 225.705 253.746 223.833 270.229C223.633 271.995 223.084 274.17 221.916 275.551C218.419 277.048 214.748 264.768 210.7 263.714C211.977 266.487 213.242 269.159 214.248 272.042C215.986 276.949 217.092 282.322 219.735 286.843C220.554 288.244 222.281 290.484 223.416 291.744C226.101 294.726 228.06 298.87 223.059 300.935C218.346 302.88 212.285 301.759 207.71 299.775C203.793 298.098 201.478 296.383 198.372 293.647C201.269 301.976 205.549 307.852 212.781 313.291C223.467 321.326 216.315 325.022 207.379 328.487C193.004 333.384 175.891 329.958 162.384 323.273C157.915 321.099 153.749 318.353 149.991 315.106L149.628 316.095C151.137 318.182 159.89 328.531 159.005 329.799C154.396 336.4 135.661 327.314 131.323 324.621C120.148 317.684 113.444 308.74 106.758 298.246L106.497 298.36C107.515 300.925 109.32 308.983 109.626 311.626C111.412 327.107 89.6975 310.022 86.4999 307.015C76.1495 297.277 69.6401 284.163 68.1509 270.05C67.765 266.66 67.7158 261.626 67.6047 258.106C65.7666 260.171 65.9131 269.891 61.8428 269.895C59.1782 269.898 56.5677 264.968 55.4106 262.719C50.5001 253.178 50.7237 241.932 53.1221 231.713C54.3655 226.167 56.621 219.913 56.9318 214.285L56.4425 213.717L55.8761 213.823C55.8512 213.08 56.2118 210.736 56.3243 209.881C55.3908 209.647 55.5622 208.811 55.441 207.933C55.2346 210.498 54.5932 213.276 53.8209 215.732C51.425 208.627 50.4859 204.288 48.5696 197.276L48.1878 197.179C47.5372 195.688 47.8115 195.442 47.5032 194.017L46.9536 194.577L46.4561 194.484L45.9719 193.639C46.374 192.736 44.2574 176.292 45.1803 171.928C45.1666 166.668 46.2518 159.927 47.1245 154.736C43.7534 151.622 40.86 148.498 38.6943 144.419C33.4238 134.469 32.8031 121.185 36.0798 110.53C46.3547 77.1162 85.3828 58.7596 118.486 59.626C124.922 59.7944 129.359 59.9087 135.588 61.7915Z" fill="#FEFEFE"/>
<path d="M135.588 61.7915C136.416 58.1452 136.952 54.5772 137.918 50.9425C142.483 33.7587 151.958 17.7953 167.789 8.83012C173.587 5.75577 181.415 2.55194 188.049 3.97154C190.558 4.21125 193.882 7.56275 191.47 9.86687C188.454 12.749 182.782 14.7588 179.085 16.7595C176.849 17.992 174.686 19.3519 172.606 20.8322C157.244 31.7874 148.798 45.648 142.293 62.9057C150.598 66.2435 155.242 68.3311 161.865 74.5163C167.646 79.915 172.999 89.797 173.063 97.739C173.363 99.809 173.224 101.974 173.046 104.057C180.244 112.542 183.802 121.964 183.426 133.075C202.407 131.884 221.345 129.663 240.342 128.539C246.764 128.159 250.312 127.309 253.985 133.973C254.201 138.773 252.209 145.198 251.002 150.027C249.561 155.675 248.156 161.332 246.787 166.998C245 174.593 243.422 182.258 241.419 189.792C240.961 191.511 239.672 192.747 238.415 193.92C239.497 200.819 234.814 199.776 229.828 200.52C229.389 203.151 228.589 204.798 226.564 206.61C216.758 215.387 200.89 220.303 188.048 218.551C193.858 225.847 197.883 227.234 205.462 232.554C218.802 241.921 225.705 253.746 223.833 270.229C223.633 271.995 223.084 274.17 221.916 275.551C218.419 277.048 214.748 264.768 210.7 263.714L209.447 263.267C209.063 263.535 209.027 263.506 208.843 263.924C208.166 262.657 207.11 261.276 207.613 259.883L208.276 259.66C212.833 260.15 219.186 272.534 220.945 273.614C223.226 271.954 222.408 261.276 221.975 258.642C219.479 243.447 207.702 235.87 195.762 228.047C186.829 222.194 183.256 215.484 181.489 205.101C173.953 205.444 162.905 207.289 156.047 207.287C156.107 209.093 156.282 209.961 155.269 211.428C154.22 211.054 154.293 210.361 154.091 209.405C154.169 208.568 154.228 208.467 153.867 207.749C150.797 204.979 132.069 206.688 130.5 203.978C131.103 202.585 132.758 200.949 133.585 199.535C134.371 198.19 135.595 194.065 133.494 193.385C128.795 191.866 125.193 198.155 122.045 200.624C120.307 201.987 119.53 202.54 117.447 203.324C113.011 204.812 104.927 203.883 100.546 202.435C87.9679 198.278 80.9885 191.576 74.9406 180.345C75.7271 179.796 75.7362 179.573 76.506 179.67C84.2789 191.986 88.4567 196.398 102.311 200.718C102.069 199.166 101.687 197.832 102.536 196.462C104.124 195.373 111.218 194.418 113.094 194.569C115.831 193.743 122.169 193.689 125.195 193.282C127.536 192.968 129.108 191.546 131.433 191.324C132.436 191.228 134.648 192.182 135.638 192.106C141.874 191.623 148.226 191.037 154.408 190.155C155.819 185.986 157.136 179.52 158.164 175.074C159.888 167.584 161.674 160.11 163.525 152.652C154.159 153.309 149.832 152.869 141.076 148.718C136.743 155.688 129.539 156.72 122.763 152.516C119.82 154.285 116.795 156.673 113.875 158.627C99.8989 167.982 78.1869 173.088 64.1546 161.15C59.2192 156.951 56.1048 149.844 55.4131 143.472C55.1489 141.042 55.3198 138.422 55.152 135.921C48.2395 148.562 45.698 170.226 46.7857 184.52C47.1067 188.738 48.241 193.325 48.5696 197.276L48.1878 197.179C47.5372 195.688 47.8115 195.442 47.5032 194.017L46.9536 194.577L46.4561 194.484L45.9719 193.639C46.374 192.736 44.2574 176.292 45.1803 171.928C45.1666 166.668 46.2518 159.927 47.1245 154.736C43.7534 151.622 40.86 148.498 38.6943 144.419C33.4238 134.469 32.8031 121.185 36.0798 110.53C46.3547 77.1162 85.3828 58.7596 118.486 59.626C124.922 59.7944 129.359 59.9087 135.588 61.7915Z" fill="#521D5E"/>
<path d="M135.588 61.7915C136.416 58.1452 136.952 54.5772 137.918 50.9425C142.483 33.7587 151.958 17.7953 167.789 8.83012C173.587 5.75577 181.415 2.55194 188.049 3.97154C190.558 4.21125 193.882 7.56275 191.47 9.86687C188.454 12.749 182.783 14.7588 179.085 16.7595C176.849 17.992 174.686 19.3519 172.606 20.8322C157.244 31.7874 148.798 45.648 142.293 62.9057C150.598 66.2435 155.242 68.3312 161.865 74.5163C167.646 79.915 172.999 89.797 173.063 97.739C172.46 99.6578 173.137 100.982 172.589 102.709C172.232 102.476 171.737 93.938 170.689 92.044L170.408 92.3409C171.24 95.9862 171.778 99.2289 171.724 102.994C170.344 101.735 167.151 98.3358 166.285 101.933C166.668 104.051 168.134 106.204 168.536 107.939C170.013 114.306 161.521 125.073 157.23 128.706C153.778 127.618 151.091 126.812 147.497 126.128L147.424 125.825C146.006 125.368 145.008 125.557 143.812 125.102C143.578 120.557 148.777 124.443 150.135 122.141C149.946 122.172 149.757 122.199 149.566 122.222C144.24 122.895 141.132 122.214 136.95 118.989L136.17 120.01C134.544 118.714 131.626 117.246 129.537 117.169L128.995 117.442L128.957 117.929C132.214 120.219 133.121 119.627 136.303 123.773C130.822 127.002 118.244 122.319 118.331 128.825C111.307 128.527 106.275 129.968 100.296 133.842C99.3355 134.501 96.7236 136.398 95.8387 136.881C91.7877 140.221 85.4046 145.828 80.2391 146.693C71.6512 148.132 68.7345 139.993 67.5693 133.151L67.4648 132.991C67.0023 132.264 66.9374 132.077 66.6763 131.26L66.4496 131.089C66.4572 131.979 66.3969 134.111 66.1778 134.913C64.4015 125.516 66.586 123.321 66.5911 115.766C62.4787 118.533 58.2396 127.5 57.2705 132.457C56.8 134.863 56.8015 137.105 56.7883 139.551C56.7381 140.206 56.7827 140.755 56.409 141.264C55.8994 139.669 56.5682 135.736 55.8441 135.003C55.1844 135.487 55.3198 135.24 55.152 135.921C48.2395 148.562 45.698 170.226 46.7857 184.52C47.1067 188.738 48.241 193.325 48.5696 197.276L48.1878 197.179C47.5372 195.688 47.8115 195.442 47.5032 194.017L46.9536 194.577L46.4561 194.484L45.9719 193.639C46.374 192.736 44.2574 176.292 45.1803 171.928C45.1666 166.668 46.2518 159.927 47.1245 154.736C43.7534 151.622 40.86 148.498 38.6943 144.419C33.4238 134.469 32.8031 121.185 36.0798 110.53C46.3547 77.1162 85.3828 58.7596 118.486 59.626C124.922 59.7944 129.359 59.9087 135.588 61.7915Z" fill="#CCE576"/>
<path d="M135.588 61.7915C136.416 58.1452 136.952 54.5772 137.918 50.9425C142.483 33.7587 151.958 17.7953 167.789 8.83012C173.587 5.75577 181.415 2.55194 188.049 3.97154C190.558 4.21125 193.882 7.56275 191.47 9.86687C188.454 12.749 182.783 14.7588 179.085 16.7595C176.849 17.992 174.686 19.3519 172.606 20.8322C157.244 31.7874 148.798 45.648 142.293 62.9057C150.598 66.2435 155.242 68.3312 161.865 74.5163C167.646 79.915 172.999 89.797 173.063 97.739C172.46 99.6578 173.137 100.982 172.589 102.709C172.232 102.476 171.737 93.938 170.689 92.044L170.408 92.3409C167.411 81.8347 160.874 74.2573 151.302 68.9461C148.34 67.3182 145.216 66.0048 141.98 65.0272C141.276 67.0881 140.269 70.6838 137.519 70.5645C134.808 69.5945 135.336 65.933 135.535 63.7239C129.726 61.7364 124.753 61.4062 118.673 61.3293C103.113 61.0461 87.7154 64.5184 73.7911 71.4505C50.4179 82.8573 31.0314 106.845 36.8166 134.073C38.5498 142.228 41.8326 146.893 47.4044 152.934C48.7329 148.442 49.9778 144.255 51.7576 139.901C52.2297 141.108 50.1867 146.218 49.6071 147.613C46.9931 153.912 46.9439 160.725 45.9065 167.388C45.6671 168.923 45.8248 172.641 45.4734 173.802C45.0617 173.171 45.3314 172.741 45.1803 171.928C45.1666 166.668 46.2518 159.927 47.1245 154.736C43.7534 151.622 40.86 148.498 38.6943 144.419C33.4238 134.469 32.8031 121.185 36.0798 110.53C46.3547 77.1162 85.3828 58.7596 118.486 59.626C124.922 59.7944 129.359 59.9087 135.588 61.7915Z" fill="#521D5E"/>
<path d="M184.246 5.16402C186.298 4.9066 189.908 5.36783 189.977 8.00978C189.142 10.0666 186.786 10.9102 184.946 11.8741C182.244 13.2896 179.272 14.5494 176.692 16.145C161.782 25.3686 150.279 39.3309 143.422 55.3848C142.148 58.3672 140.734 61.4951 139.93 64.6519C139.589 65.9345 139.053 68.231 137.547 68.5734C137.206 68.2148 137.058 67.8401 137.071 67.3323C137.744 40.6716 155.997 8.11801 184.246 5.16402Z" fill="#CCE576"/>
<path d="M55.0219 132.587C40.3426 140.387 37.1718 117.155 49.2717 113.139C51.4688 112.419 53.8668 112.63 55.9037 113.724C58.8666 115.28 59.7438 117.673 60.6799 120.591C62.0135 118.49 64.6827 113.558 67.4615 114.084C68.0599 114.628 68.5198 115.708 68.4498 116.493C67.9189 122.452 66.851 127.049 67.566 133.151L67.4615 132.991C66.9991 132.264 66.9341 132.077 66.673 131.26L66.4463 131.089C66.454 131.979 66.3936 134.111 66.1745 134.913C64.3983 125.516 66.5827 123.32 66.5878 115.766C62.4754 118.533 58.2363 127.5 57.2673 132.457C56.7967 134.863 56.7982 137.105 56.785 139.551C56.7348 140.206 56.7794 140.755 56.4057 141.264C55.8961 139.669 56.5649 135.736 55.8408 135.003C55.1811 135.487 55.3165 135.24 55.1487 135.921C48.2362 148.562 45.6948 170.226 46.7824 184.52C47.1034 188.738 48.2378 193.325 48.5663 197.276L48.1845 197.179C47.5339 195.688 47.8083 195.442 47.5 194.017L46.9503 194.577L46.4528 194.484L45.9686 193.639C46.3707 192.736 44.2542 176.291 45.177 171.927C45.3281 172.741 45.0584 173.171 45.4701 173.802C45.8215 172.641 45.6638 168.923 45.9032 167.387C46.9407 160.725 46.9898 153.912 49.6038 147.613C50.1834 146.217 52.2264 141.108 51.7543 139.9C52.6853 137.228 53.8141 135.129 55.0219 132.587Z" fill="#5E2854"/>
<path d="M50.2964 114.961C54.3236 114.569 56 115.494 58.1104 118.984C58.7433 124.695 57.2296 130.261 51.1792 131.957C50.0834 132.038 48.9831 131.887 47.9502 131.513C42.0108 129.352 42.6421 121.456 46.325 117.536C47.5891 116.191 48.6129 115.688 50.2964 114.961Z" fill="#EE8A50"/>
<path d="M114.936 111.983C113.288 108.377 110.382 106.751 109.77 105.382C111.678 104.464 115.089 108.736 115.758 110.318C119.871 120.031 109.255 129.335 100.184 129.421C96.9337 129.117 94.2569 128.168 91.294 126.895C89.0842 124.99 83.3882 118.723 85.0058 115.793C87.0366 114.163 110.535 112.766 114.936 111.983Z" fill="#521D5E"/>
<path d="M100.887 115.045C102.759 114.785 102.647 116.567 103.569 118.108C105.486 121.315 107.729 122.424 111.254 122.927C106.599 126.515 103.391 127.535 97.5811 127.212C91.7138 126.118 88.288 122.455 86.3945 117.038C90.4374 116.149 96.6263 115.566 100.887 115.045Z" fill="#FEFEFE"/>
<path d="M159.212 106.046C159.689 105.562 160.124 104.95 160.539 104.406C164.881 112.851 157.805 119.575 150.132 122.144C149.943 122.174 149.754 122.201 149.564 122.225C144.237 122.897 141.129 122.216 136.947 118.992C135.309 117.174 131.901 113.233 131.994 110.755C132.953 109.376 134.884 109.277 136.46 109.156C141.192 108.793 145.893 108.109 150.602 107.523C153.254 107.193 156.393 107.188 158.958 106.637L159.212 106.046Z" fill="#521D5E"/>
<path d="M146.925 109.82C149.135 109.281 149.15 114.028 150.908 115.279C152.571 116.463 153.754 116.817 155.674 117.565C155.365 117.799 155.052 118.027 154.735 118.25C151.215 120.713 147.497 120.764 143.45 120.07C138.147 118.286 136.053 116.281 133.547 111.415C136.97 110.767 143.405 110.075 146.925 109.82Z" fill="#FEFEFE"/>
<path d="M91.2911 126.895C94.2539 128.167 96.9308 129.117 100.181 129.421C100.171 130.493 100.08 132.903 100.293 133.841C99.3323 134.5 96.7204 136.397 95.8355 136.88C92.0375 136.16 81.9122 137.565 84.1094 130.535C85.0546 127.513 88.8409 128.179 91.2911 126.895Z" fill="#EE8A50"/>
<path d="M154.176 99.1367C156.968 100.542 158.597 102.072 160.54 104.404C160.124 104.948 159.689 105.56 159.212 106.044C157.936 103.727 155.758 101.746 154.176 99.1367Z" fill="#5E187E"/>
<path d="M111.039 94.5972C113.951 94.3429 116.748 95.4681 117.348 98.5384C118.611 104.999 109.604 104.519 105.449 104.998C99.1258 105.678 92.8117 106.43 86.5062 107.254C82.7701 107.676 80.2732 107.282 79.612 102.937C78.6922 96.8882 89.9026 96.8488 93.9658 96.3881C99.6496 95.725 105.342 95.1283 111.039 94.5972Z" fill="#5E2854"/>
<path d="M112.22 96.4434C116.506 96.2366 116.578 101.507 113.364 102.063C110.003 102.644 106.433 102.952 103.021 103.339L85.0288 105.457C84.224 105.482 83.2317 105.59 82.5826 105.034C81.9407 104.484 81.5918 103.683 81.5355 102.848C81.4853 102.093 81.6608 101.131 82.2084 100.566C84.1754 98.5382 108.08 96.7489 112.22 96.4434Z" fill="#FEFEFE"/>
<path d="M159.406 89.0898C165.343 89.2279 165.027 97.79 161.1 98.6315C158.58 99.1716 153.058 99.4579 150.274 99.73C144.352 100.355 138.442 101.089 132.548 101.935C127.257 102.017 125.587 93.3951 132.156 92.2699C140.967 90.7618 150.474 89.5435 159.406 89.0898Z" fill="#521D5E"/>
<path d="M156.36 91.1745C159.225 90.7411 163.706 90.6051 161.462 96.1636C161.146 96.9495 153.965 97.3465 152.274 97.5417L135.908 99.5475C134.541 99.7371 132.442 100.277 131.206 99.5459C130.499 99.1272 130.131 98.2856 129.953 97.5129C129.778 96.7528 129.783 95.8298 130.26 95.1759C131.573 93.375 153.233 91.5336 156.36 91.1745Z" fill="#FEFEFE"/>
<path d="M63.1371 88.8013C75.9215 88.5621 73.7898 105.716 60.5734 108.316C46.9284 109.203 49.9689 90.3757 63.1371 88.8013Z" fill="#5E2854"/>
<path d="M62.3683 90.8848C73.7841 90.9343 70.085 102.681 60.9257 106.333C57.5425 106.994 55.8164 106.204 53.9889 103.406C53.1203 96.7174 55.3474 92.2518 62.3683 90.8848Z" fill="#9461A6"/>
<path d="M107.025 67.0072C119.406 65.4101 124.758 79.8806 110.387 84.6254C97.1617 86.3459 92.775 70.8781 107.025 67.0072Z" fill="#5E2854"/>
<path d="M107.651 68.886C117.742 68.2265 121.115 77.7778 109.861 82.6217C107.427 82.8321 105.284 82.8225 103.165 81.4251C101.725 80.4931 100.736 79.0087 100.431 77.3236C100.13 75.5758 100.55 73.7805 101.597 72.3462C103.031 70.3369 105.271 69.2911 107.651 68.886Z" fill="#9461A6"/>
<path d="M82.9235 73.2992C97.1079 72.398 96.6079 87.216 83.7693 90.8552C68.4054 92.647 69.6726 76.1272 82.9235 73.2992Z" fill="#521D5E"/>
<path d="M84.0013 74.8789C95.5114 75.0949 93.6261 86.4405 83.2625 89.2822C76.848 89.527 71.6636 86.8552 75.8728 79.3905C77.355 76.7633 81.0521 75.3523 84.0013 74.8789Z" fill="#CCE576"/>
<path d="M130.729 71.9977C132.982 71.7934 134.975 71.974 136.947 73.1984C138.797 74.3297 140.109 76.1625 140.579 78.2764C141.732 83.5467 138.573 87.1834 133.541 88.2252C121.413 88.602 118.431 74.3641 130.729 71.9977Z" fill="#5E2854"/>
<path d="M130.202 73.5336C131.052 73.4775 131.93 73.4355 132.78 73.4689C140.437 73.7703 141.885 84.5738 133.772 86.3024C124.952 86.3165 121.041 77.2882 130.202 73.5336Z" fill="#D57070"/>
<path d="M168.161 102.496C175.081 106.519 178.506 114.98 180.735 122.328C181.777 125.766 181.757 129.598 181.647 133.163C176.334 133.766 172.586 132.787 168.364 137.126C165.08 140.499 165.99 150.523 161.691 150.989C149.981 152.257 140.585 147.598 132.373 139.754C129.311 142.769 126.948 146.007 123.676 149.011C115.148 156.839 106.063 162.022 94.8503 164.975C75.6524 170.03 56.8206 161.223 56.7871 139.551C56.8003 137.105 56.7988 134.863 57.2693 132.457C58.2384 127.5 62.4775 118.533 66.5899 115.766C66.5848 123.32 64.4003 125.516 66.1766 134.913C70.145 152.835 81.7216 151.475 93.0998 141.225C99.4925 135.467 109.395 129.343 118.418 130.786C118.931 131.583 119.526 132.456 119.957 133.286C127.749 137.962 137.628 138.178 139.829 127.587C146.041 127.386 151.488 128.059 157.253 130.511C168.606 135.338 172.856 128.342 172.513 117.806C172.328 112.351 170.226 107.692 168.161 102.496Z" fill="#FEFEFE"/>
<path d="M136.301 123.773C137.129 124.619 138.17 126.747 138.017 127.936C137.183 134.417 129.321 135.93 124.094 133.764C121.543 132.707 120.127 129.825 118.329 128.826C118.242 122.319 130.82 127.003 136.301 123.773Z" fill="#EE8A50"/>
<path d="M74.9375 180.346C75.724 179.797 75.7331 179.573 76.5028 179.67C84.2758 191.987 88.4536 196.399 102.308 200.719C102.066 199.166 101.684 197.832 102.533 196.462C104.121 195.374 111.215 194.419 113.091 194.569C111.203 195.969 103.826 195.246 102.58 197.309C102.211 197.922 103.264 200.079 102.76 201.161C101.477 201.571 95.1607 198.971 93.783 198.282C89.8815 196.33 85.117 192.605 82.3545 189.227L82.0006 189.516C82.4868 191.157 86.9126 194.792 88.3983 195.816C94.9842 200.352 102.544 203.367 110.621 203.476C112.725 203.504 115.502 203.068 117.444 203.324C113.008 204.813 104.924 203.883 100.543 202.436C87.9648 198.278 80.9854 191.576 74.9375 180.346Z" fill="#5E2854"/>
<path d="M136.95 118.992C141.132 122.217 144.24 122.898 149.566 122.225C149.757 122.202 149.946 122.175 150.135 122.144C148.777 124.447 143.578 120.56 143.812 125.105C145.008 125.561 146.006 125.371 147.423 125.829L147.496 126.132C144.806 125.876 142.108 125.72 139.407 125.665C138.331 123.55 137.557 121.933 136.17 120.013L136.95 118.992Z" fill="#EFD88C"/>
<path d="M246.299 133.979C247.7 133.85 250.522 133.417 251.686 134.129C252.139 134.405 252.448 134.865 252.533 135.388C253.078 138.792 244.493 166.056 243.878 172.377C243.537 175.872 241.005 182.963 240.537 186.621C239.65 193.554 232.468 192.726 227.22 193.225C221.366 193.782 215.507 194.296 209.645 194.767C194.815 196.17 179.993 197.652 165.179 199.211C163.656 199.432 160.967 199.799 159.995 198.36C159.897 195.861 162.154 188.082 162.831 185.178C165.034 175.839 167.316 166.52 169.681 157.222C170.732 153.031 171.678 148.816 172.783 144.638C173.646 141.207 174.628 140.01 178.271 139.67C200.821 137.562 223.714 135.456 246.299 133.979Z" fill="#FEFEFE"/>
<path d="M207.371 156.703C209.385 156.498 211.148 156.519 213.034 157.317C215.121 158.194 216.753 159.891 217.547 162.006C219.903 168.205 215.353 173.902 209.606 175.971C207.436 176.375 205.715 176.327 203.645 175.368C201.564 174.407 199.97 172.637 199.234 170.471C197.199 164.448 201.559 158.482 207.371 156.703Z" fill="#5E187E"/>
<path d="M207.537 158.533C209.341 158.359 210.841 158.316 212.51 159.093C214.128 159.829 215.367 161.201 215.932 162.883C217.664 167.975 213.943 172.651 209.169 174.196C199.774 176.463 196.424 163.38 207.537 158.533Z" fill="#FEFEFE"/>
<path d="M244.22 130.005C245.47 129.923 248.508 129.602 249 131.069C247.905 132.007 242.317 132.097 240.626 132.227L229.408 133.153C216.204 134.115 203.009 135.2 189.826 136.408C185.613 136.798 177.761 137.104 173.881 138.67C172.89 139.361 171.518 142.351 171.279 143.369C167.186 160.841 162.095 178.355 158.384 195.903C158.16 197.101 158.323 197.338 157.623 198.099L157.081 198.089C156.209 197.406 155.874 196.196 155.756 195.135C155.34 191.4 163.116 161.683 164.626 155.345C165.583 151.328 166.256 147.152 167.442 143.203C167.98 141.412 168.781 138.941 170.032 137.564C171.098 136.39 174.048 135.867 175.544 135.635C182.459 134.563 189.753 134.458 196.746 133.852C212.564 132.483 228.388 131.201 244.22 130.005Z" fill="#FEFEFE"/>
<path d="M226.115 200.815C226.896 200.636 227.289 200.923 227.704 201.474C227.808 203.203 224.17 206.541 222.746 207.578C215.222 213.054 205.837 215.485 196.77 216.876C195.938 216.908 196.204 217.016 195.605 216.598C194.255 214.038 195.727 209.417 196.831 206.896C197.433 205.52 198.196 203.681 199.839 203.355C202.838 202.762 206.012 202.575 209.063 202.308L226.115 200.815Z" fill="#CCE576"/>
<path d="M234.193 194.474C235.028 194.372 235.421 194.26 236.236 194.491C237.039 195.209 236.855 194.866 237.097 195.784C236.717 197.994 234.466 198.18 232.561 198.366C224.159 199.188 215.742 199.876 207.335 200.644L161.802 205.118L158.237 205.424C158.236 204.308 158.142 202.498 158.722 201.585C159.454 201.39 160.179 201.336 160.933 201.31C165.061 201.165 169.143 200.71 173.248 200.253C186.284 198.832 199.336 197.545 212.399 196.392C219.433 195.773 227.263 195.36 234.193 194.474Z" fill="#FEFEFE"/>
<path d="M132.692 142.631C134.941 144.36 137.359 146.156 139.519 147.976C137.309 151.319 134.992 153.186 130.899 153.333C128.004 153.132 126.303 152.624 123.697 151.46C126.954 148.679 129.534 145.263 132.692 142.631Z" fill="#EE8A50"/>
<path d="M152.454 192.425L153.176 192.383C153.59 192.926 153.328 196.642 153.991 199.074C149.648 198.554 144.304 198.463 139.773 198.098C138.681 198.038 137.741 198.29 136.77 197.919C136.282 197.028 136.56 195.139 136.767 194.11C138.001 193.692 150.215 192.642 152.454 192.425Z" fill="#FEFEFE"/>
<path d="M170.031 112.793C171.157 113.995 170.958 122.196 170.477 124.051C169.069 129.49 166.184 131.114 160.964 129.993C160.259 129.696 160.056 129.685 159.668 129.078C160.482 127.389 163.736 124.01 164.947 122.308C167.203 119.139 168.5 116.3 170.031 112.793Z" fill="#FEFEFE"/>
<path d="M135.613 199.635C141.249 200.706 148.562 200.267 154.347 200.68C156.509 200.834 156.874 203.862 155.672 205.126L154.837 205.059C150.485 203.97 138.558 203.528 133.562 203.229C134.23 201.872 134.824 200.907 135.613 199.635Z" fill="#FEFEFE"/>
<path d="M104.363 197.871C106.787 197.904 117.332 198.533 119.473 199.037L119.666 199.488C119.421 200.206 118.811 200.526 118.172 201.002C115.443 202.203 105.228 202.55 103.814 199.622C103.838 198.724 103.822 198.575 104.363 197.871Z" fill="#FEFEFE"/>
<path d="M122.788 195.302L123.793 195.246L124.041 195.528C123.626 196.284 122.401 197.079 121.656 197.639C119.129 197.271 116.95 197.13 114.393 196.963C113.309 196.839 112.224 196.642 111.148 196.459C114.891 195.938 119.019 195.603 122.788 195.302Z" fill="#FEFEFE"/>
<path d="M54.5703 173.431C57.555 172.488 70.0519 178.063 72.855 179.533C73.4751 179.852 74.0638 180.229 74.613 180.659C74.6992 180.584 74.9051 180.433 74.9401 180.347C80.988 191.578 87.9674 198.28 100.545 202.437C104.927 203.885 113.011 204.814 117.447 203.325C119.53 202.541 120.306 201.989 122.044 200.626C125.192 198.157 128.795 191.867 133.493 193.387C135.594 194.066 134.371 198.192 133.585 199.536C132.758 200.95 131.102 202.587 130.499 203.98C132.068 206.69 150.796 204.981 153.867 207.751C154.227 208.469 154.169 208.57 154.091 209.407C153.423 210.412 153.187 210.829 152.282 211.618C150.833 211.689 143.324 213.611 141.191 214.045C131.965 215.933 122.514 216.49 113.129 215.696C93.6365 213.898 71.8515 205.926 61.4828 188.287C60.281 186.246 59.1984 184.137 58.24 181.971C57.2436 179.66 56.0434 175.104 54.5703 173.431Z" fill="#CCE576"/>
<path d="M51.8203 174.978C52.1144 174.882 54.165 173.664 54.5707 173.43C56.0437 175.103 57.244 179.658 58.2404 181.97C59.1988 184.136 60.2814 186.244 61.4832 188.286C71.8518 205.925 93.6368 213.896 113.13 215.695C122.514 216.488 131.965 215.932 141.191 214.044C143.325 213.61 150.834 211.687 152.283 211.617C148.797 214.966 143.069 217.71 138.61 219.44C121.209 226.185 101.922 228.054 84.4289 220.3C69.2252 213.562 54.5306 199.403 52.1093 182.229C51.8452 180.359 52.5748 176.605 51.8203 174.978Z" fill="#EE8A50"/>
<path d="M55.44 207.932C55.5866 206.676 55.7407 205.906 56.9958 205.301C62.4549 206.159 55.1916 229.817 54.4005 232.96C51.6669 243.819 52.678 260.944 61.7653 268.843C65.1358 263.936 64.8732 257.817 67.4907 253.37C68.0632 252.462 67.764 252.677 68.5992 252.32C69.9779 253.043 69.664 254.435 69.6012 255.816C69.4298 259.556 69.3243 263.239 69.5428 266.987C70.4343 284.616 79.4673 300.837 94.0001 310.909C113.612 324.294 107.915 310.813 104.745 297.679L105.07 296.99L105.492 296.879C105.832 297.369 106.167 297.862 106.497 298.359C107.514 300.924 109.319 308.982 109.625 311.625C111.411 327.106 89.6966 310.02 86.499 307.013C76.1485 297.276 69.6392 284.162 68.1499 270.049C67.764 266.658 67.7148 261.625 67.6038 258.105C65.7656 260.17 65.9122 269.889 61.8419 269.894C59.1772 269.897 56.5668 264.967 55.4096 262.718C50.4991 253.177 50.7227 241.931 53.1212 231.712C54.3645 226.166 56.62 219.912 56.9308 214.284L56.4415 213.716L55.8751 213.822C55.8503 213.078 56.2108 210.734 56.3234 209.88C55.3898 209.646 55.5612 208.81 55.44 207.932Z" fill="#521D5E"/>
<path d="M56.3225 209.881L56.8925 209.512C57.4655 210.438 57.0568 213.059 56.93 214.286L56.4407 213.718L55.8743 213.824C55.8494 213.08 56.21 210.736 56.3225 209.881Z" fill="#BCA7AB"/>
<path d="M208.842 263.925C209.026 263.507 209.062 263.536 209.446 263.268L210.699 263.715C211.976 266.488 213.24 269.16 214.247 272.043C215.984 276.95 217.091 282.323 219.734 286.844C220.553 288.245 222.279 290.485 223.414 291.745C226.1 294.727 228.059 298.871 223.058 300.936C218.344 302.881 212.283 301.76 207.709 299.776C203.792 298.099 201.477 296.384 198.371 293.648C201.268 301.977 205.547 307.853 212.779 313.292C223.465 321.327 216.313 325.023 207.378 328.488C193.002 333.385 175.889 329.959 162.382 323.274C157.914 321.1 153.748 318.354 149.989 315.107C149.215 314.152 148.54 313.62 147.602 312.822C147.748 312.059 147.688 312.308 148.401 311.671C150.342 313.343 152.344 314.943 154.403 316.469C168.535 326.76 189.05 332.141 206.277 326.976C210.393 325.742 214.453 324.166 217.064 320.585C215.351 317.454 212.87 315.527 210.165 313.14C203.923 307.632 198.926 301.997 196.679 293.82C196.388 292.759 196.568 292.358 197.069 291.558C198.392 291.108 199.734 292.798 200.917 293.661C203.339 295.427 206.411 297.827 209.294 298.804C213.274 300.154 218.817 300.778 222.809 299.275C223.501 298.977 224.111 298.37 224.336 297.65C224.971 295.621 221.763 292.186 220.457 290.624C215.945 285.231 214.655 278.129 212.349 271.659C211.319 268.771 210.274 266.673 208.842 263.925Z" fill="#521D5E"/>
<path d="M51.8191 174.979C52.5737 176.606 51.844 180.36 52.1082 182.23C54.5295 199.403 69.224 213.562 84.4277 220.301C101.921 228.055 121.208 226.186 138.609 219.441C143.067 217.711 148.795 214.967 152.282 211.617C153.186 210.829 153.422 210.412 154.09 209.406C154.292 210.363 154.219 211.055 155.268 211.429C144.034 222.343 122.759 227.723 107.426 227.322C90.4558 226.942 74.3577 219.748 62.7766 207.37C56.4498 200.672 49.803 188.974 50.1392 179.406C50.2071 177.46 50.3927 176.276 51.8191 174.979Z" fill="#5E2854"/>
<path d="M106.757 298.246C106.52 297.032 106.229 296.657 107.438 296.152C116.117 311.222 127.808 324.132 145.177 329.008C147.736 329.727 155.076 330.991 157.428 329.927L157.653 329.575C156.483 326.539 143.566 313.176 144.36 309.912L144.78 309.429C146.173 309.42 147.282 310.695 148.402 311.671C147.688 312.307 147.748 312.059 147.602 312.821C148.54 313.62 149.215 314.151 149.99 315.106L149.627 316.095C151.136 318.182 159.889 328.532 159.004 329.799C154.395 336.4 135.66 327.314 131.322 324.621C120.147 317.685 113.443 308.74 106.757 298.246Z" fill="url(#paint0_linear_1505_2394)"/>
<path d="M147.602 312.824C148.54 313.623 149.215 314.154 149.989 315.109L149.627 316.098C148.991 315.274 147.794 313.778 147.602 312.824Z" fill="#BCA7AB"/>
<path d="M104.743 297.681C104.35 296.171 103.795 294.958 105.229 293.9L105.856 294.013C106.683 294.629 106.94 295.252 107.436 296.153C106.228 296.658 106.519 297.032 106.755 298.247L106.495 298.361C106.166 297.864 105.831 297.371 105.491 296.882L105.069 296.992L104.743 297.681Z" fill="#521D5E"/>
<path d="M35.566 204.588C31.8426 202.32 26.0178 198.802 22.7441 196.085C12.7348 187.781 3.85284 175.018 2.38674 161.833C2.03467 158.667 2.22984 154.076 4.30465 151.58C5.39481 150.269 7.41236 149.004 9.13186 148.986C18.2935 149.143 21.5641 161.605 24.8642 168.384C28.468 175.788 32.2589 181.502 38.2591 187.161C40.7813 189.539 43.3583 191.444 45.9712 193.64L46.4555 194.485L46.9529 194.578L47.5026 194.018C47.8109 195.442 47.5366 195.689 48.1872 197.18L48.569 197.277C50.4852 204.289 51.4243 208.627 53.8203 215.733C54.5925 213.277 55.234 210.499 55.4404 207.934C55.5616 208.812 55.3902 209.648 56.3237 209.882C56.2111 210.736 55.8506 213.08 55.8754 213.824C54.6651 217.293 52.1403 217.622 49.2469 219.757C45.9763 222.17 41.5957 233.522 38.5978 234.459C31.0409 236.822 34.9449 227.093 34.5833 224.729L33.4302 226.925C31.5008 229.666 25.6263 237.052 21.9815 233.759C20.7569 232.32 20.5703 230.806 20.7102 228.964C21.3993 219.895 29.0557 210.285 35.566 204.588Z" fill="#521D5E"/>
<path d="M31.4694 211.369C35.9403 211.842 39.8062 212.373 44.3192 211.865C45.7705 211.701 49.467 211.007 50.6211 211.534C53.1601 215.205 48.0406 218.189 45.7674 220.88C43.949 223.033 38.9553 235.198 35.4515 232.324C35.0372 230.48 35.9246 226.941 36.312 225.021L35.8034 224.548C35.7628 224.04 35.7922 223.768 35.5077 223.344C34.8744 223.867 34.7644 223.938 34.5823 224.728L33.4292 226.925C31.4998 229.666 25.6253 237.051 21.9805 233.758C22.5788 232.922 22.4059 233.164 22.5383 232.067C21.156 225.991 26.5568 214.937 31.4694 211.369Z" fill="#9461A6"/>
<path d="M22.5383 232.069C27.3235 233.881 29.1784 229.397 31.765 226.685L31.8685 226.578C32.5814 226.829 32.6869 226.891 33.4292 226.927C31.4998 229.668 25.6253 237.053 21.9805 233.76C22.5788 232.924 22.4059 233.166 22.5383 232.069Z" fill="#521D5E"/>
<path d="M31.8672 226.578C33.7469 223.65 34.7519 222.572 37.6245 220.824L36.3107 225.023L35.8021 224.55C35.7615 224.042 35.7909 223.77 35.5065 223.346C34.8731 223.869 34.7631 223.94 34.5811 224.73L33.428 226.926C32.6856 226.891 32.5801 226.829 31.8672 226.578Z" fill="#220B20"/>
<path d="M9.65991 150.641C16.7792 151.286 20.9488 164.251 23.8382 170.087C29.9494 182.429 35.4157 187.699 46.4507 195.829C47.6109 199.542 48.4131 203.927 49.4744 207.816L44.9827 206.214C26.9937 199.863 11.5859 187.008 5.54382 168.574C3.57723 162.575 1.85697 152.971 9.65991 150.641Z" fill="#CCE576"/>
<path d="M210.076 62.8051C212.962 62.5674 217.644 63.7371 217.672 67.0805C217.719 72.7978 206.51 75.9238 202.586 79.0957C199.035 81.9663 196.564 83.8122 193.574 87.1885C192.503 88.34 190.765 90.4929 189.08 90.0226C188.282 88.869 188.71 87.9177 189.145 86.6625C192.412 77.2255 199.384 64.9104 210.076 62.8051Z" fill="#5E2854"/>
<path d="M209.746 64.9093C211.977 64.6862 214.91 64.6645 215.747 67.2366C215.292 70.7742 206.873 74.234 203.934 76.2341C200.286 78.7163 196.932 80.8333 193.727 83.9476C192.591 85.3201 191.421 86.6649 190.221 87.9808C193.521 78.337 199.623 68.3032 209.746 64.9093Z" fill="#EE8A50"/>
<path d="M20.8649 130.166C26.0336 130.006 27.3981 138.024 27.3743 141.929C27.3489 146.14 27.7161 150.481 22.8268 151.75C15.5336 151.549 15.1319 139.411 16.8935 134.301C17.6724 132.041 18.7753 131.139 20.8649 130.166Z" fill="#5E2854"/>
<path d="M21.1924 132.16C25.7125 134.163 26.6303 143.543 24.6091 147.561C23.9996 148.773 23.1168 149.351 22.0114 150.073C17.5395 148.624 16.9492 140.227 17.9476 136.39C18.5364 134.127 19.2432 133.309 21.1924 132.16Z" fill="#EE8A50"/>
<path d="M222.794 90.3532C228.112 89.6442 231.833 93.5844 228.069 96.7052C222.269 101.514 216.884 104.508 211.741 110.399C210.777 111.535 210.109 112.9 208.542 112.725L208.135 112.134C207.48 108.667 210.906 102.445 212.686 99.4706C215.17 95.3221 218.307 92.2629 222.794 90.3532Z" fill="#521D5E"/>
<path d="M223.116 92.1452C224.749 92.0698 226.541 91.9722 226.95 93.8556C226.749 94.7917 226.199 95.7859 225.456 96.3984C221.175 99.9294 216.713 102.632 212.822 106.686L210.309 109.362C212.021 102.81 216.366 94.553 223.116 92.1452Z" fill="#EE8A50"/>
<path d="M177.463 29.2261C178.497 29.1365 179.626 28.9707 180.649 29.1927C182.464 29.4719 184.018 32.09 183.401 33.8353C181.555 39.055 173.493 43.0953 169.025 45.7367C167.487 46.5575 166.474 47.212 164.786 46.7113C162.403 45.0798 164.844 40.5793 165.968 38.7394C168.613 34.4129 172.423 30.4884 177.463 29.2261Z" fill="#521D5E"/>
<path d="M178.284 30.8265C181.805 30.6586 182.807 32.6062 180.674 35.2633C177.794 38.85 171.99 41.7134 167.919 44.1192C167.272 44.4894 165.942 45.0467 165.215 45.3764L165.243 45.2293C166.437 39.2925 172.11 31.932 178.284 30.8265Z" fill="#CCE576"/>
<path d="M3.74905 121.248C6.32854 121.192 8.69562 122.618 9.86489 124.852C12.3106 129.524 13.5132 135.396 8.40025 138.472C5.62934 138.229 3.59276 136.78 2.25418 134.383C-0.459332 129.523 -1.53626 124.4 3.74905 121.248Z" fill="url(#paint1_linear_1505_2394)"/>
<path d="M4.22685 122.76C9.57219 124.024 10.4848 129.915 9.97289 134.577C9.12019 135.777 8.93409 136 7.78501 136.906C2.59777 134.592 -1.39829 126.442 4.22685 122.76Z" fill="#CCE576"/>
<path d="M59.912 29.0391C63.3089 29.7587 65.9523 30.8233 66.6906 34.5197C67.5744 39.4703 63.6649 42.927 58.8167 41.8574C53.209 40.0731 52.282 33.5249 57.0465 30.0794C57.7392 29.5787 59.0687 29.2687 59.912 29.0391Z" fill="#CCE576"/>
<path d="M59.912 29.0391C63.3089 29.7587 65.9523 30.8233 66.6906 34.5197L66.0588 34.3149L65.3022 34.9137C64.9777 32.7724 63.2891 31.0944 61.1412 30.7778C58.9937 30.4617 56.8909 31.5819 55.9599 33.5386C55.0294 35.4947 55.4888 37.8277 57.0922 39.2872C57.9593 40.0767 59.0799 40.5318 60.2533 40.5713L60.7898 41.1392L60.6361 41.5646C59.8775 41.7507 59.5946 41.8048 58.8167 41.8574C53.209 40.0731 52.282 33.5249 57.0465 30.0794C57.7392 29.5787 59.0687 29.2687 59.912 29.0391Z" fill="black"/>
<path d="M65.3019 34.9152L66.0585 34.3164L66.6903 34.5212C67.5741 39.4719 63.6646 42.9285 58.8164 41.8589C59.5943 41.8063 59.8772 41.7522 60.6358 41.5661L60.7894 41.1408L60.2529 40.5728C61.7194 40.6224 63.1326 40.0191 64.1083 38.9257C65.0839 37.8323 65.5215 36.3621 65.3019 34.9152Z" fill="#220B20"/>
<path d="M206.242 0.124082C208.942 -0.485326 211.625 1.20938 212.227 3.90494C212.828 6.6 211.12 9.27026 208.416 9.86096C205.724 10.4491 203.063 8.75543 202.464 6.07302C201.866 3.39112 203.555 0.730962 206.242 0.124082Z" fill="#521D5E"/>
<path d="M207.211 2.46875C211.422 3.22482 210.599 5.97399 207.626 7.96304C203.841 7.14881 203.256 3.83524 207.211 2.46875Z" fill="#9C7DA9"/>
<path d="M194.652 104.026C197.076 103.383 199.574 104.773 200.298 107.168C201.023 109.563 199.712 112.099 197.337 112.901C195.728 113.443 193.951 113.069 192.701 111.923C191.451 110.777 190.926 109.042 191.332 107.398C191.739 105.754 193.011 104.461 194.652 104.026Z" fill="#521D5E"/>
<path d="M194.964 106.038C195.351 105.995 195.742 105.983 196.132 106.004C197.564 106.091 198.876 107.195 198.687 108.68C198.515 110.038 197.662 110.534 196.697 111.322C194.254 111.758 191.073 108.692 194.964 106.038Z" fill="#BCA7AB"/>
<path d="M11.6352 109.166C13.2431 108.681 14.9879 109.105 16.1938 110.271C17.3991 111.437 17.8757 113.165 17.4386 114.782C17.0015 116.4 15.7196 117.654 14.0894 118.058C11.6542 118.662 9.18054 117.219 8.51459 114.806C7.8486 112.393 9.23333 109.89 11.6352 109.166Z" fill="#5E2854"/>
<path d="M13.3094 111.723L14.3826 112.306C15.0798 113.942 13.9729 114.916 12.7954 115.964C11.7515 115.106 11.2611 114.866 11.252 113.465C11.6825 112.578 12.4559 112.237 13.3094 111.723Z" fill="#9C7DA9"/>
<defs>
<linearGradient id="paint0_linear_1505_2394" x1="128.563" y1="324.503" x2="134.975" y2="305.847" gradientUnits="userSpaceOnUse">
<stop stop-color="#2C0443"/>
<stop offset="1" stop-color="#4E205D"/>
</linearGradient>
<linearGradient id="paint1_linear_1505_2394" x1="1.05902" y1="130.745" x2="10.7922" y2="128.719" gradientUnits="userSpaceOnUse">
<stop stop-color="#4F1C29"/>
<stop offset="1" stop-color="#5D284A"/>
</linearGradient>
</defs>
</svg>
