<svg width="59" height="52" viewBox="0 0 59 52" fill="none" xmlns="http://www.w3.org/2000/svg">
<path d="M59 17.897C59 25.9765 57.6706 33.0696 55.0117 39.1762C52.2611 45.2828 48.0894 49.5574 42.4965 52C40.3877 49.8392 38.554 48.0542 36.9953 46.645C35.345 45.3297 33.5571 44.1554 31.6317 43.122C36.3077 41.337 39.7459 39.2231 41.9464 36.7805C44.0552 34.3379 45.4305 31.4725 46.0723 28.1843H32.1818V5.19998e-07H58.8625L59 17.897ZM27.3683 17.897C27.3683 25.9765 26.0388 33.0696 23.38 39.1762C20.6294 45.2828 16.4576 49.5574 10.8648 52C8.75602 49.8392 6.9223 48.0542 5.36363 46.645C3.71328 45.3297 1.92541 44.1554 -9.06435e-07 43.122C4.67599 41.337 8.11421 39.2231 10.3147 36.7805C12.4235 34.3379 13.7988 31.4725 14.4406 28.1843H1.9254V5.19998e-07H27.2308L27.3683 17.897Z" fill="black"/>
</svg>
