<svg width="56" height="49" viewBox="0 0 56 49" fill="none" xmlns="http://www.w3.org/2000/svg">
<path d="M0 32.1355C0 24.5221 1.26185 17.8383 3.78555 12.084C6.39627 6.32971 10.3559 2.30171 15.6643 0C17.6659 2.03613 19.4064 3.71816 20.8858 5.04607C22.4522 6.28545 24.1492 7.39205 25.9767 8.36585C21.5385 10.0479 18.2751 12.0397 16.1865 14.3415C14.1849 16.6432 12.8796 19.3433 12.2704 22.4417H25.4545V49H0.130536L0 32.1355ZM30.0233 32.1355C30.0233 24.5221 31.2852 17.8383 33.8089 12.084C36.4196 6.32971 40.3792 2.30171 45.6876 0C47.6892 2.03613 49.4297 3.71816 50.9091 5.04607C52.4755 6.28545 54.1725 7.39205 56 8.36585C51.5618 10.0479 48.2984 12.0397 46.2098 14.3415C44.2082 16.6432 42.9029 19.3433 42.2937 22.4417H54.1725V49H30.1538L30.0233 32.1355Z" fill="black"/>
</svg>
