<svg width="261" height="330" viewBox="0 0 261 330" fill="none" xmlns="http://www.w3.org/2000/svg">
<path d="M47.7279 105.311C49.1773 100.686 55.9115 77.0612 56.3069 73.243C56.9165 59.6228 57.2054 47.4999 60.4764 34.1711C63.3618 22.4203 74.4675 -1.39722 90.094 3.85203C92.7223 4.71752 94.8548 6.66395 95.9541 9.20288C98.5898 15.1291 95.7876 21.9489 93.5621 27.514C98.449 26.2813 105.21 22.0922 110.328 20.1812C135.759 10.6878 170.665 20.2547 178.984 48.4571C180.797 54.6515 180.089 60.9621 179.465 67.2555C181.974 66.5272 185.617 65.2197 188.088 65.3654L188.777 66.8001L189.592 67.4942C199.004 57.4658 206.306 34.804 219.872 33.4292C232.988 32.0998 237.51 49.0288 237.335 58.7475C236.753 90.9261 209.726 109.595 185.577 125.615C179.91 129.375 185.409 137.876 189.674 140.233C196.508 144.406 206.005 139.111 212.02 136.033C217.748 132.756 229.379 129.88 232.626 137.874C234.185 140.537 234.271 141.304 234.934 144.353C227.78 175.713 175.791 180.233 160.282 153.457C158.615 150.579 157.242 147.658 155.845 144.645C152.792 146.861 149.883 148.793 147.568 151.812C144.658 155.604 142.796 159.525 142.098 164.264C139.155 184.307 150.417 197.375 170.373 199.478C189.287 201.471 207.14 193.283 225.698 198.126C237.143 201.113 248.618 210.558 247.873 223.468C247.683 226.769 246.394 230.308 243.739 232.497C233.328 240.255 225.372 227.924 217.228 223.448C206.622 217.618 193.234 221.799 182.814 225.777C196.808 230.342 205.159 236.147 199.843 251.892L199.601 252.596C200.52 253.819 201.336 253.517 203.405 253.856C217.106 254.198 244.321 253.59 247.209 271.378C247.631 273.352 246.93 277.567 245.772 279.215C235.45 293.912 204.913 291.968 189.804 290.761C165.124 288.788 140.201 281.683 119.022 269.771C87.2808 252.104 64.024 222.359 54.5355 187.293C51.7774 177.234 51.1898 165.167 48.4574 156.277C46.1585 160.815 43.4824 165.277 40.9239 169.684C36.938 177.568 30.5552 185.809 21.8219 188.401C13.2943 191.339 1.4615 186.094 0.231209 176.286C-2.63825 153.4 21.9027 137.86 34.9389 122.647C39.9874 116.755 43.4935 111.422 47.7279 105.311Z" fill="#D8C9EF"/>
<path d="M47.7281 105.311C49.1775 100.686 55.9117 77.0612 56.3071 73.243C56.9167 59.6228 57.2057 47.4999 60.4766 34.1711C63.362 22.4203 74.4677 -1.39722 90.0943 3.85203C92.7226 4.71752 94.855 6.66395 95.9544 9.20289C98.59 15.1291 95.7879 21.9489 93.5623 27.514C98.4492 26.2813 105.21 22.0922 110.329 20.1812C135.76 10.6878 170.666 20.2547 178.984 48.4572C180.797 54.6515 180.089 60.9621 179.465 67.2556C181.974 66.5272 185.618 65.2198 188.088 65.3654L188.777 66.8002L189.592 67.4942C199.004 57.4658 206.306 34.804 219.872 33.4292C232.988 32.0998 237.51 49.0288 237.335 58.7475C236.754 90.9261 209.726 109.595 185.577 125.616C179.911 129.375 185.41 137.876 189.675 140.233C196.508 144.407 206.005 139.111 212.021 136.033C217.748 132.756 229.379 129.88 232.626 137.874C234.185 140.537 234.271 141.304 234.935 144.353C227.781 175.714 175.791 180.233 160.282 153.457C158.615 150.579 157.242 147.658 155.846 144.645C152.793 146.861 149.883 148.793 147.568 151.812C144.658 155.604 142.796 159.525 142.098 164.264C139.155 184.307 150.418 197.375 170.373 199.478C189.288 201.471 207.14 193.283 225.698 198.126C237.143 201.113 248.618 210.558 247.873 223.468C247.683 226.769 246.394 230.308 243.739 232.497C233.328 240.255 225.373 227.924 217.228 223.448C206.622 217.618 193.234 221.799 182.814 225.777C196.808 230.342 205.159 236.147 199.844 251.892L199.601 252.596C200.521 253.819 201.336 253.517 203.405 253.856C202.066 254.059 200.769 254.167 199.414 254.168L198.743 255.107L199.011 255.976C195.377 255.64 190.001 261.48 182.279 263.506L181.102 262.353C178.61 262.5 177.68 262.516 175.194 262.222L174.607 262.15C184.886 261.279 203.14 253.759 198.415 240.602C190.943 219.79 162.194 232.413 146.885 222.356C136.91 215.803 129.789 208.388 127.239 196.24C118.016 151.548 175.443 132.355 203.155 110.324C214.277 101.482 220.134 96.1558 227.758 84.3009C224.228 78.1972 225.15 77.5667 218.684 73.6114C202.035 63.4263 184.899 92.4184 173.093 90.0068C156.229 120.995 135.121 118.334 106.663 133.006C98.7663 137.079 94.762 144.146 87.9838 149.304C86.7388 150.252 85.566 149.788 84.2721 149.401C79.2811 144.675 84.1705 133.338 87.297 128.633C101.54 107.206 129.344 108.208 150.323 97.8586C156.264 94.9279 160.951 90.0655 165.438 85.2888L165.318 84.7979C160.314 89.4522 156.018 91.772 148.886 90.9739C143.381 90.363 138.352 87.5633 134.934 83.204C130.131 77.1542 130.272 72.5513 131.208 65.4119C125.902 61.8851 123.339 61.2853 117.063 61.9769C114.617 63.6553 112.109 71.119 109.208 74.581C105.985 79.0088 100.235 80.3223 94.9236 81.0409C81.5299 82.8515 73.8654 70.3698 73.1236 58.5468C72.9424 55.6736 72.6327 55.6284 70.565 53.9378C59.2072 72.1865 52.3359 89.6138 50.8106 111.339L50.0112 110.72C49.6868 110.824 49.3636 110.929 49.0392 111.033L48.6144 110.115L47.4343 110.181C46.5272 110.399 46.9838 110.412 46.0645 110.115C47.2225 108.169 47.8285 107.574 47.7281 105.311Z" fill="#602870"/>
<path d="M95.7926 29.6636C105.262 24.5184 113.053 20.8544 123.843 19.427C150.78 15.8635 183.831 34.3607 176.626 65.5245C176.227 67.2481 175.463 68.1797 174.07 69.2325L172.391 69.5103C170.918 66.27 170.539 61.7981 168.696 59.231C157.329 43.3988 140.88 48.009 131.878 62.4261C126.944 59.777 123.592 58.2651 117.979 59.1C116.162 59.3705 115.067 59.9275 114.781 57.975C112.987 45.7908 102.729 37.6758 90.4246 40.3163C84.0381 41.5417 82.4846 43.8591 77.4863 46.1997C82.8078 38.6673 88.379 35.0328 95.7926 29.6636Z" fill="#D8C9EF"/>
<path d="M47.7281 105.311C49.1775 100.686 55.9117 77.0612 56.3071 73.243C56.9167 59.6228 57.2057 47.4999 60.4766 34.1711C63.362 22.4203 74.4677 -1.39722 90.0943 3.85203C92.7225 4.71752 94.855 6.66395 95.9543 9.20289C98.59 15.1291 95.7878 21.9489 93.5623 27.514L93.9651 28.3746L95.2627 28.726L95.7928 29.6649C88.3792 35.0341 82.808 38.6687 77.4865 46.201C74.262 48.5833 71.6093 53.3955 70.565 53.9378C59.2072 72.1865 52.3359 89.6138 50.8106 111.339L50.0112 110.72C49.6868 110.824 49.3636 110.929 49.0392 111.033L48.6144 110.115L47.4343 110.181C46.5272 110.399 46.9838 110.412 46.0645 110.115C47.2225 108.169 47.8285 107.574 47.7281 105.311Z" fill="#591868"/>
<path d="M62.5703 35.5104C65.7519 24.4782 71.9438 7.94326 84.6299 5.59041C96.1371 3.45423 97.4409 16.9299 90.4545 23.2332C87.2913 26.0867 83.9554 28.7346 81.0969 31.844L80.5179 32.4842L79.4333 30.5317C75.0728 29.5401 68.0411 36.12 62.5703 35.5104Z" fill="#D8C9EF"/>
<path d="M62.5715 35.5104C68.0423 36.12 75.074 29.5401 79.4345 30.5317L80.5191 32.4842C76.554 38.4998 72.6036 44.8435 68.002 50.3584C66.8133 48.9481 65.015 46.4227 63.4566 45.8632C64.8155 48.3948 65.3786 48.8367 67.3972 50.9741C64.6526 54.6405 61.782 58.635 58.9492 62.1949C59.8661 53.8093 60.5982 43.6389 62.5715 35.5104Z" fill="#FBE4B6"/>
<path d="M177.601 80.3448C187.295 74.0501 196.287 65.5911 201.766 54.5246C208.487 40.9485 223.793 23.6228 233.227 47.3203C237.799 58.8031 233.379 73.2336 227.759 84.3026C224.229 78.1988 225.15 77.5684 218.684 73.6131C202.036 63.428 184.9 92.4201 173.094 90.0084L177.601 80.3448Z" fill="#FBE4B6"/>
<path d="M158.324 143.023C165.633 136.945 172.684 132.95 180.828 128.17C183.019 146.865 195.712 146.426 210.092 140.096C212.862 156.028 205.997 164.001 191.182 168.36C185.469 168.014 179.888 166.49 174.794 163.88C165.051 158.822 161.533 152.946 158.324 143.023Z" fill="#FBE4B6"/>
<path d="M212.02 136.032C217.748 132.754 229.379 129.879 232.626 137.873C232.769 140.019 233.067 141.7 232.455 143.748C228.013 162.619 208.455 168.69 191.184 168.357C205.999 163.999 212.864 156.026 210.093 140.093L213.535 138.17L212.02 136.032Z" fill="#F88642"/>
<path d="M212.02 136.032C217.747 132.754 229.378 129.879 232.625 137.873C232.768 140.019 233.067 141.7 232.455 143.748C229.102 132.835 222.196 134.192 213.534 138.17L212.02 136.032Z" fill="#652E58"/>
<path d="M188.777 66.7988L189.593 67.4929C187.571 70.0294 182.48 74.8661 179.359 75.5725L178.629 74.8282C178.846 66.0472 185.226 70.5264 188.777 66.7988Z" fill="white"/>
<path d="M140.934 157.213C141.005 158.607 139.444 165.088 139.178 167.444C138.165 175.802 140.684 184.203 146.132 190.624C169.737 218.697 215.751 183.48 240.094 209.251C247.203 216.779 248.553 234.759 233.644 232.253C227.819 229.886 224.394 224.747 219.178 221.432C206.574 213.531 191.668 221.055 178.582 223.928C156.378 228.801 133.153 217.593 129.256 193.796C126.769 178.611 132.515 169.177 140.934 157.213Z" fill="#CEEB71"/>
<path d="M175.148 75.8711L175.543 76.3559C175.348 80.1618 171.605 87.9635 169.78 91.3557C155.173 118.511 129.004 117.924 104.928 131.09C98.2439 134.745 91.9945 142.668 86.0976 148.15C83.593 142.489 85.1795 138.404 87.8384 133.066C97.868 113.012 121.939 110.711 140.894 104.322C154.556 99.7167 168.868 89.1374 175.148 75.8711Z" fill="#FBE4B6"/>
<path d="M90.0141 42.4643C96.441 41.032 103.142 43.1768 107.542 48.0771C111.941 52.9763 113.358 59.8671 111.245 66.1043C109.133 72.3414 103.822 76.9541 97.3506 78.1722C87.5719 80.0121 78.125 73.6721 76.1222 63.9253C74.1207 54.1796 80.3028 44.6286 90.0141 42.4643Z" fill="#D8C9EF"/>
<path d="M87.3462 61.8965C91.659 62.2515 97.1077 62.2074 98.9538 66.7148C98.4935 69.5108 98.8424 68.4862 96.9792 70.8133C90.4238 71.5846 82.5413 70.631 87.3462 61.8965Z" fill="#E98253"/>
<path d="M95.1954 53.2508C101.48 52.422 108.315 57.1779 104.773 62.2766L103.795 61.8224L102.897 58.5098C99.0271 53.4148 96.3976 56.8865 91.5829 58.4461C91.4458 55.3404 92.9466 54.9842 95.1954 53.2508Z" fill="#602870"/>
<path d="M148.967 52.5068C155.422 51.7123 161.806 54.4471 165.686 59.6682C169.564 64.888 170.34 71.7899 167.717 77.7406C165.093 83.6925 159.475 87.7764 153.006 88.435C143.146 89.4388 134.315 82.3178 133.208 72.4681C132.102 62.6196 139.131 53.7162 148.967 52.5068Z" fill="#D8C9EF"/>
<path d="M152.576 83.665C149.196 82.8264 145.946 82.1091 144.793 78.4818C146.627 71.9215 157.167 72.3891 160.708 77.1095C159.381 82.4567 157.832 83.0003 152.576 83.665Z" fill="#E98253"/>
<path d="M152.574 83.6633L151.84 80.8784C150.476 79.7705 149.525 79.1939 148.707 77.6294L149.618 76.8313C155.116 76.0551 155.289 76.224 160.706 77.1079C159.379 82.4551 157.83 82.9986 152.574 83.6633Z" fill="#D56B47"/>
<path d="M145.961 62.6133C150.759 63.1666 158.431 68.0927 153.904 72.3748C151.532 68.6656 153.308 69.0059 149.212 65.3983C144.481 64.6748 143.024 66.9285 138.66 69.651L138.078 68.9875L138.377 67.5308C140.672 64.5646 142.349 63.5485 145.961 62.6133Z" fill="#602870"/>
<path d="M48.457 156.277C50.7438 156.328 49.6898 156.034 51.6987 157.317C52.2814 158.762 52.3891 158.29 52.214 159.53C63.8583 198.772 84.3106 230.947 121.194 251.071C136.086 259.315 152.701 263.955 169.71 264.623L170.955 264.646C175.673 264.755 177.59 264.318 182.279 263.506C190.001 261.48 195.376 255.64 199.011 255.976L198.742 255.107L199.413 254.168C200.769 254.167 202.065 254.059 203.404 253.856C217.105 254.198 244.321 253.59 247.209 271.378C247.631 273.352 246.93 277.567 245.772 279.215C235.449 293.912 204.912 291.968 189.804 290.761C165.123 288.788 140.2 281.683 119.022 269.772C87.2804 252.104 64.0236 222.359 54.5351 187.293C51.777 177.234 51.1894 165.167 48.457 156.277Z" fill="#FBE4B6"/>
<path d="M199.011 255.972L198.743 255.103L199.414 254.164C200.769 254.163 202.066 254.055 203.405 253.852C217.106 254.193 244.322 253.586 247.21 271.373L244.175 268.564C247.541 285.772 224.935 288.873 212.519 288.909C211.057 284.79 210.422 282.95 207.586 279.368C200.802 270.799 180 265.164 169.711 264.618L170.956 264.641C175.674 264.75 177.591 264.313 182.279 263.502C190.002 261.476 195.377 255.635 199.011 255.972Z" fill="#F88642"/>
<path d="M199.012 255.972L198.744 255.103L199.415 254.164C200.77 254.163 202.067 254.055 203.406 253.852C217.107 254.193 244.323 253.586 247.21 271.373L244.176 268.564C243.489 267.568 242.752 266.609 241.968 265.687C233.205 255.481 211.421 257.026 199.012 255.972Z" fill="#5C2B59"/>
<path d="M48.457 156.277C50.7438 156.328 49.6898 156.034 51.6987 157.317C52.2814 158.762 52.3891 158.29 52.214 159.53C51.7562 164.376 53.2387 170.54 54.2045 175.417C67.6178 243.159 122.167 282.403 189.206 288.326C196.956 289.006 204.742 289.202 212.518 288.914C224.934 288.877 247.54 285.776 244.174 268.568L247.209 271.378C247.631 273.352 246.93 277.567 245.772 279.215C235.449 293.912 204.912 291.968 189.804 290.761C165.123 288.788 140.2 281.683 119.022 269.772C87.2804 252.104 64.0236 222.359 54.5351 187.293C51.777 177.234 51.1894 165.167 48.457 156.277Z" fill="#5C2B59"/>
<path d="M40.9239 169.686C36.938 177.569 30.5552 185.81 21.8219 188.402C13.2943 191.34 1.4615 186.096 0.231209 176.287C-2.63825 153.402 21.9027 137.861 34.9389 122.648C39.9874 116.756 43.4935 111.424 47.7279 105.312C47.8282 107.575 47.2223 108.17 46.0642 110.116C46.9836 110.414 46.5269 110.4 47.434 110.182L48.6142 110.116L49.0389 111.034C49.3633 110.93 49.6865 110.825 50.0109 110.721L50.8103 111.34C50.3562 118.786 50.3941 125.002 50.4774 132.452L49.334 131.367C48.2616 132.518 48.564 132.029 48.1012 133.535C47.9421 143.939 42.9046 159.781 38.2417 169.037L40.9239 169.686Z" fill="#FBE4B6"/>
<path d="M47.4332 110.179L48.6133 110.113L49.0381 111.031C49.3625 110.927 49.6857 110.822 50.0101 110.718L50.8095 111.337C50.3553 118.783 50.3932 124.999 50.4765 132.45L49.3331 131.364C48.2607 132.516 48.5631 132.026 48.1004 133.532C47.9412 143.936 42.9037 159.778 38.2409 169.034L36.8294 170.886C36.5344 167.157 37.2089 157.865 37.4097 153.899C37.9287 143.162 38.5371 132.43 39.2374 121.704C40.9892 118.451 45.0717 114.981 47.4332 110.179Z" fill="#F88642"/>
<path d="M47.4336 110.179L48.6137 110.113L49.0385 111.031C49.3629 110.927 49.6861 110.822 50.0105 110.718L50.8099 111.337C50.3557 118.783 50.3937 124.999 50.4769 132.45L49.3335 131.364C48.2611 132.516 48.5635 132.026 48.1008 133.532C47.8976 129.317 48.1828 112.455 47.4336 110.179Z" fill="#602870"/>
<path d="M40.9239 169.686C36.938 177.569 30.5552 185.81 21.8219 188.402C13.2943 191.34 1.4615 186.096 0.231209 176.287C-2.63825 153.402 21.9027 137.861 34.9389 122.648C39.9874 116.756 43.4934 111.424 47.7279 105.312C47.8282 107.575 47.2223 108.17 46.0642 110.116C46.9836 110.414 46.5269 110.4 47.434 110.182C45.0726 114.983 40.99 118.454 39.2382 121.707C29.1107 132.088 12.8206 146.572 6.02888 158.924C-8.51183 185.373 23.6141 199.763 36.8303 170.889L38.2417 169.037L40.9239 169.686Z" fill="#602870"/>
<path d="M48.0997 133.531C48.5625 132.026 48.2601 132.515 49.3325 131.363L50.4759 132.449C53.1739 159.549 60.0819 182.998 75.5959 205.765C97.9272 238.541 133.96 262.823 174.606 262.148L175.192 262.22C177.678 262.514 178.609 262.498 181.1 262.351L182.278 263.504C177.589 264.316 175.672 264.753 170.954 264.644L169.709 264.621C152.7 263.953 136.085 259.312 121.193 251.069C84.3095 230.945 63.8573 198.77 52.2129 159.528C52.388 158.288 52.2803 158.76 51.6976 157.315C49.6887 156.032 50.7427 156.325 48.4559 156.275C46.157 160.813 43.4809 165.275 40.9224 169.682L38.2402 169.033C42.9031 159.778 47.9406 143.936 48.0997 133.531Z" fill="#652E58"/>
<path d="M111.883 73.8242C113.686 74.0691 118.291 77.2825 120.264 78.4393C122.37 77.5775 125.347 76.04 127.478 76.2224L128.014 77.4037C122.512 81.9099 114.156 81.2831 111.883 73.8242Z" fill="#591868"/>
<path d="M45.2635 219.223C58.4955 216.173 71.6933 224.437 74.7256 237.673C77.7579 250.908 69.4763 264.094 56.2357 267.109C43.0208 270.118 29.8658 261.855 26.8385 248.644C23.8123 235.434 32.0571 222.268 45.2635 219.223Z" fill="#CEEB71"/>
<path d="M45.9388 221.541C57.9638 218.925 69.842 226.522 72.5107 238.535C75.1794 250.549 67.6348 262.459 55.6342 265.181C43.5566 267.921 31.5548 260.319 28.8689 248.23C26.1831 236.14 33.8378 224.173 45.9388 221.541Z" fill="white"/>
<path d="M48.0425 230.782C52.3173 230.685 57.8163 232.05 59.5032 236.358C61.0138 240.217 60.1557 244.754 55.7854 246.082C53.779 246.691 50.4333 246.737 49.8164 244.366L52.4471 243.932C54.7094 243.573 55.1819 243.769 56.9092 242.177C61.5562 229.425 34.4395 230.196 42.994 248.759C51.0895 256.987 55.1293 251.522 62.4167 247.782L62.6665 248.424C59.633 253.913 55.499 257.025 48.9876 255.136C45.3518 254.074 42.2889 251.61 40.4735 248.287C36.2758 240.482 40.7073 234.054 48.0425 230.782Z" fill="#CEEB71"/>
<path d="M183.763 0.0437853C200.515 -0.772737 211.28 9.88981 209.5 27.0882C208.268 39.0006 193.895 53.1006 181.431 51.4945L181.372 50.7906C183.955 48.9299 188.901 47.2736 191.786 45.9625C218.612 33.7661 207.826 -7.07109 178.536 4.70422C170.031 8.12455 170.324 19.4481 174.759 27.0894C181.781 33.957 195.108 34.1798 196.376 22.3629C197.09 15.7254 189.994 9.99629 183.729 13.3015C180.284 15.1194 179.294 18.7124 182.384 21.7655C184.754 23.9053 187.753 22.6628 190.636 23.1562C189.276 25.509 187.159 26.1676 184.564 25.8628C182.453 25.6229 180.545 24.493 179.321 22.7559C178.048 20.9747 177.738 18.792 178.251 16.6864C178.885 14.1156 180.533 11.9121 182.817 10.5753C184.935 9.30219 187.48 8.94475 189.866 9.58499C193.298 10.5056 196.185 12.8266 197.82 15.9813C199.425 19.1825 199.659 22.9003 198.467 26.2778C197.212 29.7299 194.584 32.5088 191.206 33.9521C172.568 41.8027 156.782 8.22737 183.763 0.0437853Z" fill="#CEEB71"/>
<path d="M24.5919 32.877C28.6267 37.0416 38.5511 51.395 42.4489 56.823C38.3932 57.4192 33.8785 57.8415 29.7701 58.3103C23.9039 59.04 18.318 59.7439 12.4102 60.1858L24.5919 32.877Z" fill="#8C5FA7"/>
<path d="M235.95 157.302C244.86 157.118 254.607 162.196 255.982 171.272C259.446 194.126 227.245 199.506 223.985 177.335C223.137 171.569 231.631 165.371 237.502 165.892C240.292 166.15 242.839 167.586 244.504 169.838C247.266 173.495 247.705 179.333 243.29 181.954C240.543 183.586 237.737 182.787 234.817 182.189C233.088 179.871 232.728 179.64 232.207 176.902C232.779 174.744 232.216 175.583 233.824 174.211L234.782 174.522C234.475 176.618 234.328 176.651 235.15 178.677C236.896 180.451 236.769 180.402 239.128 181.139C243.051 180.461 245.122 176.432 244.087 173.51C240.16 162.438 220.747 170.413 228.901 183.374C230.697 186.201 233.537 188.205 236.803 188.948C253.471 192.781 261.635 165.963 244.148 161.004C241.995 160.393 236.569 159.541 235.145 158.839L235.95 157.302Z" fill="#CEEB71"/>
<path d="M202.759 307.09L203.312 307.8C202.636 312.517 198.87 324.686 197.439 329.797C194.423 327.453 192.075 324.747 189.477 321.954C186.561 318.743 184.083 315.778 181.344 312.41C188.098 311.004 195.827 308.716 202.759 307.09Z" fill="#8C5FA7"/>
<path d="M110.575 295.375C113.184 295.102 116.297 295.003 118.956 294.848C116.733 299.025 111.634 313.237 107.942 314.63L106.321 312.973C102.65 308.069 98.9503 302.047 95.6523 296.827L110.575 295.375Z" fill="#F88642"/>
<path d="M82.1076 266.684C85.0297 265.496 88.3655 265.993 90.8176 267.978C93.2683 269.963 94.446 273.124 93.8915 276.23C93.3369 279.334 91.1383 281.893 88.1513 282.908C83.7162 284.415 78.8856 282.122 77.2501 277.732C75.6146 273.341 77.7667 268.446 82.1076 266.684Z" fill="#652E58"/>
<path d="M83.1919 268.525C86.409 267.375 89.9628 268.942 91.2836 272.092C92.6045 275.243 91.231 278.876 88.1571 280.365C86.0148 281.402 83.4759 281.17 81.5564 279.765C79.6369 278.359 78.6502 276.007 78.9929 273.653C79.3357 271.299 80.9516 269.325 83.1919 268.525Z" fill="#E98253"/>
<path d="M229.947 8.32589C234.498 7.85336 238.623 11.0252 239.335 15.546C240.046 20.0657 237.096 24.3527 232.619 25.3015C229.506 25.9613 226.283 24.8485 224.239 22.41C222.196 19.9702 221.665 16.6013 222.86 13.6522C224.056 10.7032 226.781 8.65397 229.947 8.32589Z" fill="#652E58"/>
<path d="M228.738 10.8656C232.065 9.7418 235.672 11.5438 236.77 14.8797C237.869 18.2155 236.04 21.8072 232.697 22.8821C229.388 23.9447 225.84 22.139 224.753 18.8386C223.665 15.537 225.445 11.9771 228.738 10.8656Z" fill="#F88642"/>
<path d="M30.8518 77.4571C35.4032 76.6112 39.7955 79.5614 40.7333 84.0945C41.6722 88.6289 38.8113 93.08 34.2978 94.1095C31.2949 94.795 28.1561 93.8034 26.0934 91.5179C24.0295 89.2324 23.3623 86.0092 24.3489 83.0919C25.3369 80.1747 27.8232 78.019 30.8518 77.4571Z" fill="#5C2B59"/>
<path d="M30.5565 79.9702C33.8042 79.0117 37.2196 80.8333 38.2332 84.0638C39.2469 87.2944 37.4828 90.7405 34.2706 91.808C32.143 92.5155 29.7999 92.0197 28.1412 90.5128C26.4824 89.0046 25.7663 86.7203 26.2657 84.5352C26.7664 82.35 28.4068 80.6056 30.5565 79.9702Z" fill="#CEEB71"/>
<path d="M254.343 243.825C257.439 243.405 260.322 245.485 260.898 248.557C261.475 251.627 259.543 254.612 256.505 255.342C254.398 255.849 252.184 255.154 250.745 253.534C249.307 251.913 248.878 249.632 249.631 247.601C250.384 245.569 252.196 244.118 254.343 243.825Z" fill="#8C5FA7"/>
<path d="M9.45723 199.21C11.4416 198.376 13.7222 198.701 15.3945 200.056C17.0667 201.41 17.8587 203.574 17.4548 205.687C17.052 207.801 15.5181 209.521 13.4652 210.164C10.4904 211.096 7.30761 209.526 6.23769 206.598C5.16653 203.671 6.58409 200.418 9.45723 199.21Z" fill="#8C5FA7"/>
<path d="M42.6126 197.227C50.4987 197.047 52.6691 202.833 46.1015 207.214C38.8703 206.878 36.8798 201.509 42.6126 197.227Z" fill="#CEEB71"/>
<path d="M36.4143 208.5C37.8674 208.614 37.3826 208.472 38.7023 209.249C37.8221 211.043 38.4232 210.106 36.4461 211.248C26.4581 217.015 21.7438 224.93 18.8156 235.76L17.8093 235.937L17.0332 235.14C18.2513 223.25 26.5058 214.268 36.4143 208.5Z" fill="#CEEB71"/>
</svg>
