<svg width="319" height="312" viewBox="0 0 319 312" fill="none" xmlns="http://www.w3.org/2000/svg">
<path d="M84.0345 117.27C82.8648 113.53 77.4169 101.671 78.8608 98.6L80.523 98.377C95.7305 102.797 113.543 106.342 129.067 110.157L129.659 112.709C132.772 113.832 135.95 115.257 138.831 116.883C149.526 122.917 163.001 125.139 174.563 120.197C177.98 118.746 181.953 117.288 185.473 116.014C186.561 115.638 191.677 115.859 193.868 115.424L190.591 115.212L190.129 114.762C189.521 114.801 188.913 114.839 188.305 114.877C190.812 114.523 191.856 114.617 193.88 113.106C205.552 112.411 225.306 110.896 236.423 111.101C235.017 113.401 233.903 115.407 232.148 117.465C228.217 123.508 223.443 129.286 219.695 135.189C223.181 135.343 250.336 124.336 257.596 122.704C256.065 128.514 253.374 134.83 250.925 140.353C259.061 137.484 267.193 134.446 275.328 131.633C278.394 126.893 288.916 111.954 295.47 116.384C296.859 120.081 295.346 124.003 293.915 127.483C299.668 126.182 312.237 120.606 317.588 123.551C318.302 123.943 318.805 124.544 318.938 125.341C319.394 128.055 317.117 130.977 315.478 132.912C307.816 141.953 261.98 172.757 250.507 172.707C248.211 172.697 246.604 171.448 245.194 169.767C242.886 167.015 241.171 163.546 239.421 160.421C231.794 163.186 226.658 166.254 219.498 169.926C218.131 170.626 217.66 170.334 216.503 170.02C215.55 167.835 216.539 165.534 217.379 163.416C218.272 161.22 219.178 159.029 220.098 156.844C210.415 159.004 200.782 161.385 191.207 163.986C186.7 176.237 182.847 189.004 178.28 201.067C180.915 199.17 186.037 194.885 189.106 195.117C191.302 198.776 192.731 214.001 193.464 219.145C196.803 217.248 204.25 212.536 207.605 212.539C210.001 215.179 203.138 236.57 202.034 241.007C205.375 240.203 209.64 238.635 212.615 240.177C214.415 244.025 193.129 291.828 190.156 298.764L187.9 298.408C188.14 301.231 199.57 307.406 202.479 309.195C193.875 309.353 184.6 309.373 176.039 308.706C176.649 305.152 176.945 302.079 177.672 298.403L181.04 275.046C182.497 265.322 182.806 264.594 172.703 263.465C174.769 258.527 177.448 252.606 178.872 247.545C169.096 241.402 159.195 235.46 149.176 229.722C144.811 227.254 136.773 223.453 133.146 220.706L133.304 219.44C131.451 219.395 129.608 220.131 128.252 221.371C115.745 232.825 104.28 245.375 91.2828 256.338C82.1469 264.043 69.7005 260.531 58.684 259.126C52.0909 258.486 45.7068 257.838 39.0846 257.502L14.8854 278.175C17.9182 270.115 30.4297 243.554 35.5546 238.067C41.2591 237.44 46.9706 236.887 52.6891 236.41L51.804 234.134C56.1983 233.366 60.7006 233.502 66.1322 232.44C67.2763 230.649 68.4054 229.009 69.6204 227.264C71.1816 227.446 71.077 227.413 72.5661 226.861C78.9386 217.618 85.8175 206.984 91.8078 197.448C89.703 197.594 89.2988 198.164 87.6481 199.478C88.6332 197.672 91.8241 193.606 93.182 191.779C86.6457 191.133 80.106 190.541 73.5605 190C75.1902 185.399 80.4127 177.315 83.125 172.83L98.9713 146.568C89.8877 142.732 75.6246 138.308 65.9754 135.521C61.674 137.224 44.4663 148.459 40.863 151.492C40.7771 159.486 39.3239 172.354 29.5991 174.244C23.6634 172.657 26.0064 165.084 26.96 160.719C18.0751 162.705 8.96478 174.134 5.83663 174.158C-7.47048 174.255 5.77619 151.359 8.3944 147.98C20.2681 132.66 33.7553 122.155 49.6888 111.661C53.5034 109.149 58.41 105.732 63.0261 104.835C69.3381 104.262 79.473 113.637 84.0345 117.27Z" fill="#CEEB71"/>
<path d="M193.881 113.106C205.554 112.411 225.308 110.896 236.424 111.101C235.019 113.401 233.905 115.407 232.149 117.465C228.219 123.508 223.445 129.285 219.696 135.189C223.182 135.343 250.338 124.336 257.597 122.704C256.066 128.514 253.375 134.83 250.926 140.353C259.062 137.484 267.194 134.446 275.329 131.633C278.396 126.893 288.917 111.953 295.471 116.384C296.86 120.081 295.348 124.003 293.917 127.483C299.669 126.182 312.238 120.606 317.59 123.551C318.303 123.943 318.806 124.544 318.94 125.341C319.395 128.055 317.118 130.977 315.479 132.912C307.817 141.953 261.981 172.757 250.508 172.707C248.212 172.697 246.605 171.447 245.195 169.767C242.887 167.015 241.173 163.546 239.422 160.421C231.795 163.186 226.66 166.254 219.5 169.926C218.133 170.626 217.661 170.334 216.504 170.02C215.552 167.835 216.54 165.534 217.38 163.416C218.273 161.22 219.179 159.029 220.099 156.844C210.416 159.003 200.783 161.385 191.208 163.985C186.701 176.237 182.848 189.004 178.281 201.067C180.917 199.17 186.038 194.885 189.107 195.117C191.303 198.776 192.732 214.001 193.465 219.144C196.805 217.248 204.252 212.536 207.606 212.539C210.003 215.179 203.139 236.569 202.035 241.007C205.376 240.203 209.641 238.635 212.616 240.177C214.417 244.024 193.131 291.828 190.157 298.764L187.901 298.407C188.142 301.231 199.572 307.406 202.48 309.195C193.876 309.353 184.601 309.373 176.04 308.706C176.65 305.152 176.946 302.079 177.673 298.403L181.041 275.046C183.253 278.498 180.131 284.036 180.74 285.596C186.859 279.432 184.265 276.961 187.992 272.547C189.041 270.146 190.567 263.806 191.319 260.972C189.098 262.087 185.945 264.03 183.572 263.633C182.804 261.018 188.804 237.935 189.854 233.569C184.765 235.537 182.726 236.882 178.474 240.032C178.921 230.908 180.143 223.237 181.51 214.231C174.406 217.885 165.954 225.692 160.127 228.173L159.415 227.622C159.821 224.296 167.339 203.404 169.039 197.646C164.581 199.334 160.11 200.99 155.629 202.616C162.445 188.038 174.702 168.467 182.438 153.543C186.233 146.222 200.589 120.171 204.779 115.134C201.106 115.339 197.544 115.375 193.869 115.424L190.593 115.212L190.13 114.762C189.523 114.8 188.914 114.839 188.307 114.877C190.813 114.523 191.858 114.617 193.881 113.106Z" fill="#F88642"/>
<path d="M277.197 132.927C279.701 129.685 288.712 115.617 293.632 118.278C294.564 121.718 293.026 124.36 291.039 127.041C281.628 128.334 284.096 133.162 286.14 140.499C281.882 144.916 256.471 159.977 250.674 161.517C247.708 160.748 246.423 151.888 245.418 148.695C240.413 150.221 236.949 151.641 232.094 153.676C236.401 144.245 245.1 134.83 247.921 128.362L254.207 125.788C252.818 129.328 248.822 138.465 248.357 141.79L249.224 142.429C254.831 142.379 270.788 135.351 277.197 132.927Z" fill="#CEEB71"/>
<path d="M275.331 131.629C278.397 126.888 288.919 111.949 295.472 116.38C296.862 120.077 295.349 123.998 293.918 127.479C299.67 126.178 312.24 120.602 317.591 123.547C318.305 123.939 318.808 124.54 318.941 125.337C319.396 128.051 317.12 130.973 315.481 132.908C307.819 141.948 261.983 172.753 250.51 172.703C248.213 172.693 246.607 171.443 245.197 169.763C242.889 167.011 241.174 163.542 239.424 160.416C231.797 163.182 226.661 166.25 219.501 169.922C218.134 170.622 217.663 170.329 216.506 170.016C215.553 167.831 216.542 165.53 217.381 163.412C218.275 161.216 219.181 159.025 220.101 156.84C210.418 158.999 200.785 161.381 191.21 163.981L188.305 164.02C188.797 163.301 189.531 162.182 190.343 161.894C199.871 158.516 213.359 156.059 223.113 153.883C221.651 158.585 219.853 163.432 218.208 168.092C225.645 164.114 232.706 160.006 240.679 157.243C242.375 160.301 246.296 170.996 250.707 170.325C261.962 168.609 316.558 136.014 316.492 126.251C311.555 122.564 295.404 132.189 290.141 130.077C290.008 128.101 289.896 129.107 291.042 127.043C293.028 124.362 294.566 121.719 293.635 118.28C288.714 115.619 279.704 129.687 277.2 132.929C270.791 135.353 254.833 142.381 249.226 142.431L248.36 141.792C248.824 138.467 252.82 129.33 254.21 125.79L247.924 128.364C240.506 129.729 219.817 139.508 215.373 139.11L214.629 138.296C215.658 136.015 216.439 135.022 217.889 132.943L219.698 135.185C223.184 135.339 250.339 124.332 257.599 122.7C256.068 128.51 253.377 134.826 250.928 140.349C259.064 137.48 267.196 134.442 275.331 131.629Z" fill="#762F54"/>
<path d="M188.304 164.023L191.209 163.984C186.703 176.236 182.85 189.003 178.282 201.066C180.918 199.169 186.039 194.884 189.108 195.116C191.305 198.775 192.733 214 193.466 219.143C196.806 217.246 204.253 212.535 207.608 212.537C210.004 215.178 203.14 236.568 202.037 241.006C205.377 240.202 209.643 238.634 212.617 240.176C214.418 244.023 193.132 291.827 190.158 298.763L187.902 298.406C189.005 294.448 193.55 284.539 195.313 280.179C200.422 267.547 205.922 254.949 210.455 242.079C206.517 242.757 202.569 243.38 198.613 243.949C200.759 234.563 203.634 224.978 206.281 215.69C202.442 217.176 195.73 220.696 191.728 222.592C190.235 215.228 189.079 205.547 187.976 198.005C184.241 199.871 177.634 204.561 173.941 207.037C177.031 194.226 184.228 177.121 188.304 164.023Z" fill="#762F54"/>
<path d="M193.879 113.106C205.552 112.411 225.306 110.896 236.422 111.101C235.017 113.401 233.903 115.407 232.148 117.465C232.381 115.596 232.286 115.408 232.045 113.595C229.584 113.228 207.147 114.55 204.777 115.134C201.104 115.339 197.542 115.375 193.868 115.424L190.591 115.212L190.128 114.762C189.521 114.8 188.912 114.839 188.305 114.877C190.811 114.523 191.856 114.617 193.879 113.106Z" fill="#652E58"/>
<path d="M181.039 275.045C183.251 278.498 180.13 284.036 180.738 285.596C186.858 279.432 184.264 276.961 187.99 272.547C187.005 276.923 180.965 295.5 178.393 298.568L177.672 298.403L181.039 275.045Z" fill="#E7E67A"/>
<path d="M217.889 132.942C222.404 126.512 227.378 119.945 232.048 113.59C232.289 115.403 232.384 115.591 232.151 117.46C228.22 123.503 223.446 129.281 219.697 135.184L217.889 132.942Z" fill="#762F54"/>
<path d="M84.0345 117.27C82.8648 113.53 77.4169 101.671 78.8608 98.6L80.523 98.377C95.7305 102.797 113.543 106.342 129.067 110.157L129.659 112.709C127.278 112.499 122.693 111.365 120.196 110.822C115.329 116.962 108.747 124.733 104.315 130.944C111.139 131.324 121.016 131.309 127.302 131.955C122.004 140.118 117.054 148.886 111.919 157.214C107.483 164.408 102.149 171.92 98.4776 179.399C101.765 179.341 112.141 178.727 114.431 180.27C111.382 186.64 102.141 198.057 97.6924 204.409C90.1677 215.152 82.1295 225.999 74.6071 236.732C69.8829 243.473 62.8994 252.389 58.6841 259.126C52.0909 258.486 45.7068 257.838 39.0847 257.502L14.8854 278.175C17.9182 270.115 30.4297 243.554 35.5546 238.067C41.2591 237.44 46.9706 236.887 52.6891 236.41L51.804 234.134C56.1983 233.366 60.7006 233.502 66.1322 232.44C67.2763 230.649 68.4054 229.009 69.6204 227.264C71.1816 227.446 71.077 227.413 72.5661 226.861C78.9386 217.618 85.8175 206.984 91.8078 197.448C89.703 197.594 89.2988 198.164 87.6482 199.478C88.6332 197.672 91.8241 193.606 93.182 191.779C86.6458 191.133 80.106 190.541 73.5605 190C75.1902 185.399 80.4127 177.315 83.125 172.83L98.9713 146.568C89.8877 142.732 75.6246 138.308 65.9754 135.521C61.674 137.224 44.4663 148.459 40.863 151.492C40.7771 159.486 39.3239 172.354 29.5991 174.244C23.6634 172.657 26.0064 165.084 26.96 160.719C18.0751 162.705 8.96478 174.134 5.83663 174.158C-7.47048 174.255 5.77619 151.359 8.3944 147.98C20.2681 132.66 33.7553 122.155 49.6888 111.661C53.5034 109.149 58.41 105.732 63.0261 104.835C69.3381 104.262 79.473 113.637 84.0345 117.27Z" fill="#F88642"/>
<path d="M7.27814 170.556C6.43018 171.314 6.12357 171.36 5.09209 171.903L3.87818 171.492C-7.73302 156.731 47.9022 110.328 63.1097 107.529C68.6005 106.52 82.5883 119.301 86.6016 122.415C88.6402 126.577 89.825 128.183 91.2096 132.814C86.9269 130.956 69.0222 122.816 66.2634 122.991C47.6967 124.17 14.9934 152.354 8.34564 167.626C7.93677 168.582 7.58015 169.56 7.27814 170.556Z" fill="#CEEB71"/>
<path d="M84.0345 117.27C82.8648 113.53 77.4169 101.671 78.8608 98.6L80.523 98.377C79.5403 100.584 79.4637 99.6524 79.8052 101.549L80.3395 101.75L80.8146 101.428L81.0945 101.829C82.6104 106.09 88.0733 119.199 86.6016 122.421C82.5883 119.306 68.6005 106.525 63.1097 107.535C47.9022 110.333 -7.73304 156.736 3.87816 171.497L5.09207 171.909C6.12356 171.365 6.43017 171.32 7.27812 170.561C13.7214 166.283 18.4828 159.11 26.586 158.173C31.8584 160.15 26.0343 166.369 29.5167 171.435C30.7363 171.697 30.8804 171.963 31.9874 171.046C38.6154 165.555 38.6816 157.45 38.5236 149.955C43.2292 146.212 59.8491 135.541 65.1018 133.157C73.3932 135.089 95.5876 141.421 102.376 145.485C94.6049 159.556 84.9162 174.515 76.5144 188.425C81.8484 188.457 89.6461 187.987 94.2971 190.065C95.5911 191.589 95.3169 190.736 95.1926 192.695C94.685 193.492 92.4037 196.923 91.8078 197.448C89.703 197.594 89.2988 198.164 87.6482 199.478C88.6332 197.671 91.8241 193.606 93.182 191.779C86.6458 191.133 80.106 190.541 73.5605 190C75.1902 185.399 80.4127 177.315 83.125 172.83L98.9713 146.568C89.8877 142.732 75.6246 138.308 65.9754 135.521C61.674 137.224 44.4663 148.459 40.863 151.492C40.7771 159.486 39.3239 172.354 29.5991 174.243C23.6634 172.657 26.0064 165.084 26.96 160.719C18.0751 162.705 8.96478 174.134 5.83663 174.158C-7.47048 174.255 5.77619 151.359 8.3944 147.98C20.2681 132.66 33.7553 122.155 49.6888 111.661C53.5034 109.149 58.41 105.732 63.0261 104.835C69.3381 104.262 79.473 113.637 84.0345 117.27Z" fill="#652E58"/>
<path d="M80.5231 98.377C95.7305 102.797 113.543 106.342 129.067 110.157L129.659 112.709C127.278 112.499 122.693 111.365 120.196 110.822C108.645 107.693 92.8277 104.011 81.0946 101.829L80.8146 101.428L80.3395 101.75L79.8052 101.549C79.4637 99.6524 79.5404 100.584 80.5231 98.377Z" fill="#762F54"/>
<path d="M69.6211 227.262C71.1823 227.445 71.0777 227.411 72.5668 226.859C70.9011 229.517 69.0356 232.652 67.306 235.217C62.4808 235.685 57.522 236.244 52.6898 236.409L51.8047 234.132C56.199 233.364 60.7013 233.5 66.1329 232.439C67.277 230.647 68.4061 229.007 69.6211 227.262Z" fill="#762F54"/>
<path d="M135.955 133.253C140.565 133.342 160.046 132.719 162.381 134.833C163.303 138.652 153.857 150.506 151.309 154.105C157.811 154.7 164.308 155.362 170.797 156.093C157.875 168.005 143.035 179.415 130.163 191.599C128.378 193.25 125.326 196.542 123.068 196.656L122.589 195.725C123.129 192.816 124.728 190.754 126.317 188.206C129.76 181.714 133.369 175.311 137.143 169.006C132.728 169.016 124.516 169.387 120.58 168.319L119.721 167.317C121.393 161.427 132.627 139.949 135.955 133.253Z" fill="#652E58"/>
<path d="M137.427 135.801C145.263 135.831 153.099 135.92 160.934 136.067C157.344 141.242 150.333 150.869 148.011 156.167C153.41 156.94 160.076 157.348 165.594 157.829C157.271 164.07 137.493 181.398 129.71 188.734L127.602 190.542C128.079 188.029 138.357 171.681 140.54 167.196C134.038 166.579 128.622 166.652 122.105 166.675C127.12 156.338 132.228 146.046 137.427 135.801Z" fill="#CEEB71"/>
<path d="M126.317 188.203L126.854 190.532L127.6 190.539L129.708 188.732L130.163 191.596C128.377 193.248 125.326 196.54 123.068 196.654L122.588 195.722C123.128 192.813 124.727 190.752 126.317 188.203Z" fill="#5C2B59"/>
<path d="M138.131 5.61859C139.891 2.47767 141.454 1.05472 144.944 0C147.535 0.0847957 148.606 1.12212 150.806 2.61707C153.059 4.14804 157.186 4.55925 159.95 4.98555C176.359 7.51315 185.18 12.4568 191.853 28.144C202.428 23.2433 214.475 17.6166 226.283 21.4603C232.657 23.5349 237.873 30.0537 234.668 36.691C229.883 46.6016 217.243 46.7828 207.809 46.8304C202.484 46.8583 197.205 47.0488 191.962 47.5866L194.154 50.249C208.528 70.3281 205.76 95.9004 188.131 113.008C190.35 113.419 191.605 113.231 193.88 113.102C191.857 114.614 190.812 114.519 188.306 114.874C188.913 114.835 189.522 114.797 190.129 114.759L190.592 115.208L193.869 115.421C191.678 115.855 186.561 115.635 185.474 116.011C181.953 117.284 177.98 118.743 174.563 120.194C163.002 125.135 149.526 122.913 138.832 116.88C135.951 115.254 132.773 113.828 129.66 112.705L129.067 110.153C127.837 108.073 121.625 100.788 119.246 97.3675C117.318 94.2777 114.632 89.2074 112.261 86.7982C110.866 85.9828 111.319 86.3963 110.489 84.9432C110.262 83.9849 109.663 82.3517 109.335 81.3551C107.347 79.1423 101.986 69.7044 100.205 66.6692L98.1702 63.7501C96.3082 61.5535 96.4581 62.161 93.1278 61.7556L95.775 60.9971C102.509 58.8157 115.484 57.1569 123.329 55.4006C122.436 53.5444 121.656 53.5746 119.541 52.2539C112.473 50.1956 111.127 55.0324 106.92 48.6472C102.144 41.3931 90.635 31.9459 84.7678 25.3411C81.8732 22.86 76.8494 18.9373 74.9688 15.8452L75.172 14.9194C79.334 14.3665 102.262 25.11 109.339 26.9906C116.881 13.1329 123.439 9.99196 138.131 5.61859Z" fill="#F88642"/>
<path d="M138.131 5.61859C139.891 2.47767 141.454 1.05472 144.944 0C147.535 0.0847957 148.606 1.12212 150.806 2.61707C153.059 4.14804 157.186 4.55925 159.95 4.98555C176.359 7.51315 185.18 12.4568 191.853 28.144C202.428 23.2433 214.475 17.6166 226.283 21.4603C232.657 23.5349 237.873 30.0537 234.668 36.691C229.883 46.6016 217.243 46.7828 207.809 46.8304C202.484 46.8583 197.205 47.0488 191.962 47.5866L192.211 44.9208C188.942 45.0985 184.44 45.2252 181.301 45.6062C180.25 45.6062 180.042 45.4632 179 45.2112L178.237 42.8996C175.571 44.4794 172.48 46.216 169.271 45.8118L169.099 45.1078L169.821 44.2239L167.998 43.2121C166.922 43.916 164.497 45.4075 163.336 45.5365C158.478 46.0789 136.211 49.4707 133.01 47.4461L131.799 48.6704L131.368 48.6205C127.098 48.4497 125.502 48.6263 121.251 49.1606L119.541 52.2539C112.473 50.1956 111.127 55.0324 106.92 48.6472C102.144 41.3931 90.635 31.9459 84.7678 25.3411C81.8732 22.86 76.8494 18.9373 74.9688 15.8452L75.172 14.9194C79.334 14.3665 102.262 25.11 109.339 26.9906C116.881 13.1329 123.439 9.99196 138.131 5.61859Z" fill="#652E58"/>
<path d="M133.011 47.4486C133.025 45.0836 132.354 40.8659 132.216 38.3754C130.728 11.6474 146.135 0.337017 171.227 9.9561C181.251 13.7998 185.699 19.5682 189.827 29.3093C182.483 33.836 175.205 38.4719 167.999 43.2146C166.923 43.9185 164.498 45.41 163.337 45.5389C158.48 46.0814 136.212 49.4732 133.011 47.4486Z" fill="#CEEB71"/>
<path d="M110.343 49.3897C107.282 24.6363 116.646 12.8973 140.435 7.79102C129.653 19.25 127.417 33.6746 131.369 48.6207C127.099 48.45 125.503 48.6265 121.252 49.1609L110.343 49.3897Z" fill="#CEEB71"/>
<path d="M179.002 45.2125C185.121 39.8239 197.545 34.2577 204.221 30.9599C211.674 27.2765 233.58 21.3374 232.594 34.9128C232.445 36.9653 228.402 41.0924 226.324 41.8161C216.768 46.0141 202.828 44.1288 192.213 44.9221C188.944 45.0999 184.442 45.2265 181.303 45.6075C180.252 45.6075 180.044 45.4646 179.002 45.2125Z" fill="#CEEB71"/>
<path d="M84.7678 25.3427C81.8732 22.8616 76.8494 18.9389 74.9688 15.8468L75.172 14.921C79.334 14.3681 102.262 25.1116 109.339 26.9922C109.165 27.8448 108.971 29.0656 108.683 29.8473C107.567 33.4831 107.653 41.4492 107.614 45.574C100.833 36.7007 89.4944 27.9807 82.0625 19.4256L81.8988 20.9159C83.1382 22.4027 84.3439 23.4993 84.7678 25.3427Z" fill="#E98253"/>
<path d="M84.7678 25.3427C81.8732 22.8616 76.8494 18.9389 74.9688 15.8468L75.172 14.921C79.334 14.3681 102.262 25.1116 109.339 26.9922C109.165 27.8448 108.971 29.0656 108.683 29.8473C100.714 26.2696 90.3353 22.3574 82.0625 19.4256L81.8988 20.9159C83.1382 22.4027 84.3439 23.4993 84.7678 25.3427Z" fill="#652E58"/>
<path d="M169.822 44.2205C172.831 42.8452 177.814 39.4487 180.961 37.5309C192.174 30.6985 206.384 21.9645 219.945 22.004C222.372 22.0122 227.742 23.2527 229.396 25.0706C228.304 24.8232 227.208 24.5897 226.11 24.369C211.108 21.371 190.323 34.8105 178.238 42.8963C175.572 44.476 172.481 46.2126 169.272 45.8084L169.1 45.1045L169.822 44.2205Z" fill="#CEEB71"/>
<path d="M121.503 96.5801C127.807 104.788 133.194 111.829 142.937 116.189C157.546 122.726 172.67 121.224 185.631 111.646L188.132 113.01C190.35 113.421 191.605 113.233 193.88 113.104C191.857 114.615 190.812 114.521 188.306 114.875C188.913 114.837 189.522 114.798 190.129 114.76L190.592 115.21L193.869 115.422C191.678 115.857 186.561 115.636 185.474 116.012C181.953 117.285 177.98 118.744 174.563 120.195C163.002 125.136 149.526 122.914 138.832 116.881C135.951 115.255 132.773 113.83 129.66 112.706L129.067 110.154C127.837 108.074 121.625 100.79 119.246 97.3688L121.503 96.5801Z" fill="url(#paint0_linear_1505_2392)"/>
<path d="M192.665 52.258L194.155 50.2461C208.528 70.3252 205.76 95.8975 188.132 113.005L185.631 111.642C202.783 94.7627 205.939 72.8226 192.665 52.258Z" fill="#762F54"/>
<path d="M167.998 43.2148L169.821 44.2266L169.099 45.1105L169.271 45.8145C172.48 46.2187 175.571 44.4821 178.237 42.9023L179 45.2139C180.042 45.4659 180.25 45.6089 181.301 45.6089L180.527 46.5509L182.134 47.5022C165.86 47.0829 139.912 50.8058 122.998 51.6212L122.782 52.2415L124.544 54.071C124.323 54.323 123.561 55.2407 123.329 55.4033C122.436 53.5471 121.656 53.5773 119.541 52.2566L121.251 49.1633C125.502 48.629 127.098 48.4524 131.368 48.6232L131.799 48.6731L133.01 47.4488C136.211 49.4734 158.478 46.0816 163.336 45.5392C164.497 45.4102 166.922 43.9187 167.998 43.2148Z" fill="#762F54"/>
<path d="M124.545 54.0684C126.819 54.5899 126.584 54.1276 127.563 55.5947C124.327 59.4035 105.957 60.3828 101.039 62.7396C101.037 63.0649 101.036 63.3901 101.033 63.7165C100.409 65.3276 100.399 65.0175 100.206 66.6693L98.1713 63.7502C96.3093 61.5536 96.4592 62.1611 93.1289 61.7557L95.7761 60.9972C102.51 58.8158 115.485 57.157 123.33 55.4007C123.562 55.2381 124.324 54.3204 124.545 54.0684Z" fill="#652E58"/>
<path d="M101.032 63.7148C105.153 69.3021 108.366 75.7919 112.138 81.5185L109.335 81.3535C107.347 79.1407 101.986 69.7028 100.205 66.6676C100.398 65.0158 100.407 65.326 101.032 63.7148Z" fill="#652E58"/>
<path d="M109.336 81.3555L112.139 81.5204C115.222 86.564 118.343 91.5832 121.504 96.5792L119.247 97.3679C117.318 94.2781 114.633 89.2077 112.262 86.7986C110.867 85.9832 111.32 86.3967 110.489 84.9436C110.263 83.9853 109.664 82.3521 109.336 81.3555Z" fill="#652E58"/>
<path d="M181.302 45.6072C184.441 45.2262 188.943 45.0996 192.212 44.9219L191.963 47.5877L194.155 50.2501L192.666 52.2619C189.129 47.64 187.92 47.4483 182.135 47.5006L180.527 46.5493L181.302 45.6072Z" fill="#652E58"/>
<path d="M182.93 61.4315C183.448 57.7423 185.446 55.0997 189.627 55.3216C192.978 57.2359 192.292 61.2003 189.67 63.7454C190.529 65.3972 193.847 69.2687 194.105 70.1689C195.995 76.7319 196.742 84.3171 192.089 89.7486L191.235 89.9461L187.879 92.598L187.075 89.9554C184.363 91.2889 183.952 91.5131 180.963 91.7826L178.555 93.1347C167.988 86.0804 170.903 73.4934 176.63 64.2937C176.043 63.6513 176.352 64.0788 175.896 62.8939C177.954 61.133 180.193 61.3827 182.93 61.4315Z" fill="#652E58"/>
<path d="M182.928 61.4315C183.446 57.7423 185.444 55.0997 189.626 55.3216C192.977 57.2359 192.29 61.2003 189.669 63.7454C190.527 65.3972 193.846 69.2687 194.104 70.1689C195.993 76.7319 196.74 84.3171 192.087 89.7486L191.233 89.9461L187.877 92.598L187.074 89.9554L187.387 89.5825C191.641 84.3937 191.521 83.296 192.262 76.6622C189.895 68.3221 187.649 64.2228 178.384 65.2833C178.126 65.0742 176.969 64.4784 176.629 64.2937C176.041 63.6513 176.35 64.0788 175.895 62.8939C177.953 61.133 180.191 61.3827 182.928 61.4315Z" fill="#E98253"/>
<path d="M182.928 61.4291C185.358 61.6684 188.832 60.9993 190.269 61.2281C189.236 62.5826 188.665 61.7427 187.392 63.3922C191.073 67.5657 192.038 67.3392 193.922 73.1146L192.753 72.7395C192.379 74.2542 192.605 75.2798 192.262 76.6598C189.895 68.3196 187.649 64.2204 178.384 65.2809C178.126 65.0718 176.969 64.4759 176.629 64.2912C176.041 63.6489 176.35 64.0763 175.895 62.8915C177.953 61.1305 180.191 61.3803 182.928 61.4291Z" fill="#762F54"/>
<path d="M192.263 76.6606C192.606 75.2806 192.379 74.2549 192.753 72.7402L193.923 73.1154C195.547 81.4788 194.857 82.35 191.234 89.9444L187.878 92.5964L187.074 89.9538L187.388 89.5809C191.642 84.3921 191.522 83.2944 192.263 76.6606Z" fill="#762F54"/>
<path d="M178.388 65.2817C187.652 64.2212 189.899 68.3204 192.266 76.6606C191.525 83.2944 191.645 84.3921 187.391 89.5809L187.078 89.9538C184.365 91.2873 183.954 91.5114 180.965 91.7809C183.669 89.2429 184.233 87.9686 185.67 84.5803C183.445 83.3118 180.269 81.9748 177.879 80.8853L185.702 79.5018C184.663 71.2313 184.682 70.7167 178.388 65.2817Z" fill="white"/>
<path d="M145.038 64.2105C146.516 63.1523 146.193 63.8249 146.471 62.3752C144.577 61.8293 143.932 61.7399 142.033 61.4634L142.041 60.72C147.052 57.1969 156.595 64.5346 159.89 68.4039L160.285 68.8603C164.887 79.5214 162.81 93.6858 149.445 95.3004C135.619 92.307 134.55 72.9642 145.038 64.2105Z" fill="white"/>
<path d="M145.038 64.209L146.017 65.5739C149.373 68.3257 155.824 74.6923 151.918 79.104C150.06 81.2018 146.423 80.7813 143.813 80.9068C146.637 81.8732 149.797 82.5841 151.818 84.6076C153.016 88.1098 150.95 89.9381 148.726 92.5482C149.086 93.6749 149.332 94.1419 149.445 95.2988C135.619 92.3054 134.55 72.9627 145.038 64.209Z" fill="#652E58"/>
<path d="M145.038 64.2105C146.516 63.1523 146.193 63.8249 146.472 62.3752C144.577 61.8293 143.932 61.7399 142.033 61.4634L142.041 60.72C147.052 57.1969 156.595 64.5346 159.89 68.4039L160.285 68.8603C164.887 79.5214 162.81 93.6858 149.445 95.3004C149.333 94.1434 149.086 93.6765 148.726 92.5497C160.121 92.8668 161.526 78.2123 157.503 69.7873C153.744 65.544 151.562 65.213 146.017 65.5754L145.038 64.2105Z" fill="#762F54"/>
<path d="M149.771 102.419C148.335 99.9112 147.222 99.0934 149.272 96.8841C155.037 95.0558 163.889 98.7229 170.151 98.4534C172.634 98.3454 176.766 98.1235 179.052 98.8321C179.283 100.666 178.816 100.578 177.535 102.599C173.495 106.733 169.637 109.188 163.595 109.146C158.705 109.155 154.035 107.117 150.717 103.525C150.402 103.157 150.086 102.787 149.771 102.419Z" fill="#762F54"/>
<path d="M175.353 101.152C176.304 101.877 176.467 102.122 177.538 102.6C173.498 106.734 169.64 109.188 163.597 109.146C158.707 109.156 154.038 107.117 150.72 103.525C150.404 103.157 150.088 102.788 149.773 102.42L151.667 102.035C156.088 105.446 157.124 106.179 162.798 107.029C168.573 106.521 171.41 105.398 175.353 101.152Z" fill="#762F54"/>
<path d="M162.685 100.568C164.954 100.711 174.179 100.861 175.351 101.151C171.409 105.397 168.571 106.52 162.797 107.028C161.55 105.337 160.828 104.665 160.469 102.586C161.318 100.868 160.706 101.617 162.685 100.568Z" fill="#EEEAA0"/>
<path d="M151.663 102.035C150.627 99.9464 150.54 100.815 151.04 99.1984C154.026 98.4329 159.389 99.9174 162.683 100.569C160.704 101.618 161.316 100.869 160.467 102.587C160.826 104.666 161.548 105.337 162.795 107.029C157.12 106.178 156.084 105.445 151.663 102.035Z" fill="#E7E67A"/>
<path d="M180.963 91.7803C183.951 91.5108 184.363 91.2866 187.075 89.9531L187.879 92.5957C184.055 94.6436 182.666 94.6622 178.555 93.1324L180.963 91.7803Z" fill="#762F54"/>
<path d="M33.5859 41.6988C48.7423 25.267 61.7067 18.7795 71.1725 43.8837C75.3785 55.0384 83.785 60.6732 95.776 60.995L93.1288 61.7535C96.459 62.1589 96.3092 61.5514 98.1712 63.7479L100.206 66.667C101.987 69.7022 107.348 79.1401 109.336 81.3529C109.664 82.3496 110.263 83.9827 110.49 84.941C111.32 86.3942 110.867 85.9806 112.262 86.7961C92.0949 96.9112 84.3193 79.3933 67.6471 73.2578C61.0841 70.8417 46.4145 74.2858 44.4827 72.6991L44.6547 71.1019C45.8894 69.1795 45.8244 69.2806 47.77 68.0481C57.4495 61.8058 68.1663 64.776 78.4324 67.2037C60.9401 54.1103 63.3898 30.0899 38.6725 43.9499L37.9303 42.1413L36.3307 42.9881C34.4629 42.8139 35.362 42.9928 33.5859 41.6988Z" fill="#8C5FA7"/>
<path d="M37.9316 42.1445C60.4501 24.8055 63.8396 50.9388 77.0154 62.7928C79.4908 65.0196 85.5984 67.7609 86.9447 69.6032C81.5015 72.398 70.7208 67.4914 65.3055 67.7992L64.6759 69.1606C85.4683 73.9591 88.4292 93.7548 110.491 84.9442C111.322 86.3974 110.869 85.9838 112.264 86.7993C92.0963 96.9143 84.3207 79.3965 67.6485 73.261C61.0855 70.8449 46.4158 74.289 44.4841 72.7023L44.6561 71.1051C45.8908 69.1827 45.8258 69.2837 47.7714 68.0513C57.4509 61.8089 68.1677 64.7791 78.4337 67.2068C60.9414 54.1135 63.3912 30.093 38.6739 43.9531L37.9316 42.1445Z" fill="#602870"/>
<path d="M48.9902 69.8045C55.178 67.3663 58.9462 67.4058 65.3035 67.7984L64.674 69.1598C58.032 68.4465 53.4728 70.2296 48.9902 69.8045Z" fill="#AD99B3"/>
<path d="M33.5859 41.6988C48.7423 25.267 61.7067 18.7795 71.1725 43.8837C75.3785 55.0384 83.785 60.6732 95.776 60.995L93.1288 61.7535C96.459 62.1589 96.3092 61.5514 98.1712 63.7479C63.9997 63.0301 73.1216 37.6541 59.9272 31.0563C56.9895 29.5869 53.7173 30.0806 50.7506 31.1806C45.9405 32.9636 38.4994 38.1269 36.3307 42.9881C34.4629 42.8139 35.362 42.9928 33.5859 41.6988Z" fill="#602870"/>
<path d="M20.2392 208.93C32.6507 202.535 45.0251 195.877 57.6329 189.898C58.6423 190.069 59.6099 190.134 60.5078 190.539C60.8458 192.238 60.8795 191.602 60.5276 193.266C61.1397 195.616 60.4904 194.839 62.0179 196.072L59.9932 203.325C66.3122 202.454 83.0483 198.385 87.6505 199.472C89.3012 198.158 89.7054 197.588 91.8102 197.443C85.8199 206.978 78.941 217.613 72.5685 226.855C71.0794 227.407 71.184 227.441 69.6228 227.259C73.6523 220.313 79.0188 212.925 83.4096 205.913C76.4447 208.445 51.0677 219.852 46.3272 220.783C45.0762 219.449 45.5118 219.692 45.5815 217.147L47.7455 208.984C33.6171 210.888 19.3146 215.625 4.95508 217.502C9.10542 214.159 15.3617 211.361 20.2392 208.93Z" fill="#E98253"/>
<path d="M60.525 193.266C61.1372 195.616 60.4879 194.838 62.0154 196.072L59.9907 203.325C66.3097 202.454 83.0458 198.385 87.648 199.472C89.2986 198.158 89.7028 197.588 91.8076 197.443C85.8173 206.978 78.9384 217.612 72.566 226.855C71.0768 227.407 71.1814 227.441 69.6203 227.258C73.6498 220.313 79.0163 212.924 83.4071 205.913C76.4422 208.445 51.0651 219.852 46.3247 220.782C45.0737 219.449 45.5092 219.692 45.5789 217.147L47.8823 217.565C51.7167 217.641 76.4329 204.937 82.1956 204.048C83.0261 203.919 84.6848 203.222 85.1982 202.036C82.9924 201.739 61.3137 205.653 57.2621 206.297C58.088 201.923 58.7664 197.328 60.525 193.266Z" fill="#762F54"/>
<path d="M20.1393 211.798C29.8757 210.365 41.2558 207.109 50.0606 206.004C49.3985 210.038 48.799 213.584 47.8849 217.567L45.5815 217.149L47.7455 208.987C33.6171 210.891 19.3146 215.628 4.95508 217.505C9.10542 214.162 15.3617 211.364 20.2392 208.932L18.5979 211.037L20.0766 211.686L19.5806 211.866L20.1393 211.798Z" fill="#5C2B59"/>
<path d="M20.237 208.93C32.6485 202.535 45.0229 195.877 57.6307 189.898C58.6401 190.069 59.6077 190.134 60.5056 190.538C51.8286 196.461 38.8456 201.339 29.4809 206.535C26.9289 207.952 22.2152 210.038 20.1371 211.795L19.5784 211.864L20.0744 211.684L18.5957 211.035L20.237 208.93Z" fill="#762F54"/>
<path d="M58.6839 259.124C69.7004 260.528 82.1468 264.041 91.2826 256.336C104.28 245.373 115.744 232.822 128.252 221.369C129.608 220.129 131.451 219.393 133.304 219.437L133.146 220.704C136.773 223.451 144.811 227.251 149.176 229.72C159.195 235.458 169.096 241.399 178.872 247.543C177.448 252.604 174.769 258.525 172.703 263.463C182.806 264.592 182.497 265.32 181.039 275.044L177.672 298.401C176.945 302.077 176.649 305.15 176.039 308.704C184.6 309.371 193.875 309.351 202.479 309.193C199.57 307.404 188.14 301.229 187.9 298.405L190.156 298.762C196.18 302.603 202.506 306.474 207.835 311.208C199.613 312.177 182.802 311.279 173.927 311.011C175.205 297.195 178.127 281.071 179.86 266.964C175.434 266.343 169.688 265.988 171.496 259.917C172.469 256.648 174.724 252.059 176.091 248.9C164.836 241.052 142.82 228.36 130.599 221.67C121.252 229.855 95.0741 260.245 83.205 262.938C76.045 264.561 49.4517 260.485 40.0823 259.582C35.8983 263.213 17.2386 279.975 13.6365 280.799L12.734 280.174C12.0556 275.426 29.6211 241.793 33.409 236.134C39.3889 235.129 45.7416 234.68 51.8039 234.131L52.689 236.408C46.9705 236.884 41.259 237.437 35.5545 238.065C30.4295 243.552 17.9181 270.113 14.8852 278.173L39.0845 257.5C45.7067 257.836 52.0908 258.484 58.6839 259.124Z" fill="#652E58"/>
<path d="M131.776 233.746C133.103 235.751 131.372 246.185 131.005 249.311C136.094 247.955 141.287 246.447 146.475 245.613C138.947 255.663 129.941 266.06 122.871 275.951C122.396 276.614 122.727 276.268 121.744 276.837C120.869 274.05 124.984 261.523 126.007 257.924C120.865 258.756 116.86 259.328 111.684 259.754C117.419 252.568 125.62 239.804 131.776 233.746Z" fill="#5C2B59"/>
<path d="M128.997 239.496C129.523 241.451 128.881 248.906 128.752 251.491C133.246 250.903 135.944 250.292 140.248 249.05C135.847 256.153 130.216 263.232 125.119 269.928L124.818 270.079C124.102 267.369 128.37 259.184 127.182 256.37C124.276 255.133 118.633 256.883 115.412 257.607C120.074 252.009 124.665 245.433 128.997 239.496Z" fill="#D66A6E"/>
<path d="M250.668 61.2637C256.653 64.8983 262.665 68.4841 268.708 72.02C264.996 77.9603 262.104 84.5407 258.072 90.5565C251.99 87.2123 245.754 83.5162 239.711 80.0512C243.384 73.7135 246.811 67.5176 250.668 61.2637Z" fill="#F88642"/>
<path d="M211.747 169.145C211.648 173.924 211.545 176.983 210.911 181.688C217.602 181.659 223.507 181.233 229.981 181.114C226.972 183.179 223.804 185.282 220.843 187.391C215.23 191.807 209.068 196.538 203.096 200.449L202.374 199.864C202.107 196.349 203.209 195.032 203.586 191.899L203.598 191.568C202.358 190.58 195.809 191.425 193.602 191.574L197.551 185.856C201.642 180.587 206.816 173.375 211.747 169.145Z" fill="#D66A6E"/>
<path d="M211.747 169.145C211.648 173.924 211.544 176.983 210.911 181.688C217.602 181.659 223.506 181.233 229.981 181.114C226.971 183.179 223.804 185.282 220.843 187.391L220.205 185.273L220.528 184.311C218.35 183.821 211.522 184.538 208.225 184.39C208.635 180.909 208.987 177.708 209.651 174.26C207.913 176.589 200.124 186.411 199.342 187.987L197.551 185.856C201.642 180.587 206.816 173.375 211.747 169.145Z" fill="#652E58"/>
<path d="M220.205 185.275L220.843 187.393C215.23 191.809 209.068 196.54 203.096 200.451L202.373 199.866C202.106 196.351 203.209 195.034 203.586 191.901C203.91 192.78 204.5 194.572 204.933 195.301C210.069 192.849 215.533 188.67 220.205 185.275Z" fill="#762F54"/>
<path d="M197.551 185.855L199.342 187.986L199.937 188.5C202.376 188.102 204.229 187.345 206.14 188.23C206.889 190.605 205.782 192.893 204.934 195.298C204.501 194.568 203.911 192.777 203.586 191.898L203.598 191.567C202.358 190.58 195.809 191.424 193.602 191.573L197.551 185.855Z" fill="#5C2B59"/>
<path d="M22.0273 63.5879C26.8595 68.5409 33.4062 80.5505 38.0502 86.8091C33.9405 87.2935 29.6972 87.6699 25.569 88.0857C20.4673 88.1972 14.8522 88.6142 9.7168 88.8884C14.0844 80.1962 17.1452 72.4252 22.0273 63.5879Z" fill="#CEEB71"/>
<path d="M227.534 273.265C232.619 271.407 238.246 274.046 240.067 279.144C241.89 284.242 239.211 289.849 234.1 291.636C229.039 293.404 223.501 290.756 221.697 285.709C219.893 280.662 222.499 275.105 227.534 273.265Z" fill="#F88642"/>
<path d="M96.4714 289.492L103.791 288.934C102.546 291.809 95.4457 308.063 93.8276 308.945L92.0214 306.901C88.6377 302.097 85.0031 296.303 81.7344 291.34L82.3117 291.224C87.1787 290.195 91.5416 289.92 96.4714 289.492Z" fill="#CEEB71"/>
<path d="M75.8556 145.961L76.6431 146.796C76.98 149.259 75.8509 152.483 75.1923 155.013C78.274 155.364 82.6717 155.388 85.8614 155.487C81.9887 159.366 72.6531 165.965 67.9951 169.438C66.4467 170.276 67.175 170.269 65.7753 170.003C65.572 167.947 67.6943 162.534 68.4795 160.08L61.0547 160.027C65.4664 154.805 70.5739 150.28 75.8556 145.961Z" fill="#602870"/>
<path d="M33.5842 41.7031C35.3603 42.9971 34.4612 42.8182 36.329 42.9925L37.9285 42.1457L38.6708 43.9543C36.6124 45.7175 32.7932 49.3928 30.0786 49.1059L29.6836 48.0152C30.2911 45.3981 31.8813 43.8555 33.5842 41.7031Z" fill="#591868"/>
<path d="M57.6328 189.901C60.0872 188.569 62.2606 187.317 64.8521 186.254C64.003 189.554 63.2224 192.889 62.0178 196.075C60.4903 194.842 61.1396 195.619 60.5275 193.269C60.8794 191.605 60.8457 192.241 60.5077 190.541C59.6098 190.137 58.6422 190.072 57.6328 189.901Z" fill="#652E58"/>
<defs>
<linearGradient id="paint0_linear_1505_2392" x1="152.629" y1="121.082" x2="153.83" y2="100.994" gradientUnits="userSpaceOnUse">
<stop stop-color="#7C3848"/>
<stop offset="1" stop-color="#6F2A61"/>
</linearGradient>
</defs>
</svg>
