<svg width="1285" height="831" viewBox="0 0 1285 831" fill="none" xmlns="http://www.w3.org/2000/svg">
<path d="M818 0C835.673 0.000226652 850 14.327 850 32V390C850 407.673 835.673 422 818 422H689.185C683.53 422 679 426.685 679.191 432.336C679.372 437.725 683.793 442 689.185 442H1253C1270.67 442 1285 456.327 1285 474V799C1285 816.673 1270.67 831 1253 831H467C449.327 831 435 816.673 435 799V474C435 456.327 449.327 442 467 442H573.314C578.837 442 583.314 437.523 583.314 432C583.314 426.477 578.837 422 573.314 422H32C14.3269 422 6.44301e-07 407.673 0 390V32C6.44297e-07 14.3269 14.3269 0 32 0H818Z" fill="#6220D9"/>
</svg>
