<svg width="387" height="355" viewBox="0 0 387 355" fill="none" xmlns="http://www.w3.org/2000/svg">
<path d="M174.409 41.5419L174.552 40.4827C176.18 27.737 169.636 18.0084 170.888 8.12515C172.503 -4.63375 187.792 -0.82433 193.115 8.95385C202.009 25.2931 196.785 35.6418 189.362 50.0771C190.407 51.4441 189.762 50.8737 191.609 51.447C234.817 52.4071 275.921 82.8519 296.772 119.478C304.458 133.927 309.859 147.908 312.845 164.114C326.863 148.972 343.496 132.642 365.212 130.897C378.646 129.817 387.884 137.675 386.932 151.283C384.281 189.122 342.314 234.1 306.419 242.41C300.736 254.978 297.469 261.145 289.96 272.746L291.516 274.19C298.96 289.947 296.702 309.359 285.411 322.769C279.103 332.076 267.49 341.359 257.59 346.915C248.926 351.78 227.798 359.651 222.204 346.918C218.454 338.383 224.105 326.854 227.668 318.755C195.617 329.575 171.161 328.898 139.104 320.154C152.563 348.141 142.612 362.903 113.595 349.654C83.8972 336.092 59.6534 306.844 74.5713 273.76C67.7779 266.622 61.5515 253.916 57.5186 245.042C43.9561 238.083 32.3247 227.879 23.6596 215.337C23.3414 215.066 23.3046 215.059 22.9835 214.631C8.97348 196.03 -1.59518 169.502 0.198796 145.901C0.738332 139.068 4.17062 128.819 10.1499 124.788C26.4457 113.803 44.1978 136.172 52.045 147.262L53.0545 145.31C64.1051 110.641 86.0551 85.0725 117.337 66.997C135.457 57.178 150.573 53.602 170.627 51.5609C172.915 47.2597 173.208 46.0677 174.409 41.5419Z" fill="#F88642"/>
<path d="M296.772 119.479C304.458 133.927 309.859 147.909 312.845 164.114C326.863 148.972 343.496 132.642 365.212 130.897C378.646 129.817 387.884 137.675 386.932 151.283C384.281 189.122 342.314 234.1 306.419 242.41C300.736 254.978 297.469 261.145 289.96 272.746L291.516 274.19C298.96 289.947 296.702 309.359 285.411 322.769C279.103 332.076 267.49 341.359 257.59 346.915C248.926 351.78 227.798 359.651 222.204 346.918C218.454 338.383 224.105 326.854 227.668 318.755C195.617 329.575 171.161 328.898 139.104 320.154C152.563 348.141 142.612 362.903 113.595 349.654C83.8972 336.093 59.6534 306.844 74.5713 273.76C67.7779 266.622 61.5515 253.916 57.5186 245.042C43.9561 238.083 32.3247 227.879 23.6596 215.337C23.3414 215.066 23.3046 215.059 22.9835 214.631C8.97348 196.03 -1.59518 169.502 0.198796 145.901C0.738332 139.068 4.17062 128.819 10.1499 124.788C26.4457 113.803 44.1978 136.172 52.045 147.262L50.941 150.783C50.8272 153.924 50.7807 154.197 49.8459 157.218C51.8489 159.246 50.7779 158.876 53.09 159.489L53.3577 160.292C57.5589 172.595 63.1922 182.879 70.7094 193.457C94.329 223.296 122.456 241.706 160.957 246.356C195.208 250.597 229.741 241.061 256.965 219.847C264.594 213.839 274.408 204.074 279.96 196.06C290.212 186.894 300.173 158.097 304.388 144.894L303.094 144.779C301.551 143.278 302.088 142.59 301.923 139.687C301.118 133.553 296.675 125.608 293.765 119.944L296.772 119.479Z" fill="#CEEB71"/>
<path d="M77.2214 273.242C78.0589 273.684 95.3071 292.128 99.5367 295.338C161.901 342.668 239.742 329.459 287.54 270.518L289.959 272.75L291.516 274.194C298.959 289.951 296.701 309.363 285.41 322.773C279.102 332.08 267.489 341.363 257.59 346.919C248.925 351.784 227.797 359.655 222.203 346.922C218.454 338.387 224.104 326.858 227.667 318.759C195.616 329.579 171.16 328.902 139.103 320.158C152.562 348.145 142.611 362.907 113.594 349.658C83.8963 336.097 59.6525 306.848 74.5704 273.764C75.8106 274.962 76.3533 275.405 77.7379 276.437C77.2462 275.141 77.1747 274.626 77.2214 273.242Z" fill="#652E58"/>
<path d="M291.514 274.193C298.958 289.95 296.7 309.362 285.409 322.772L283.319 320.754C280.07 324.567 271.992 334.046 267.604 336.545C252.406 338.229 238.26 340.245 228.139 325.529L231.083 317.858C245.178 311.013 255.696 305.318 268.175 295.629C273.047 291.846 285.886 276.871 288.89 275.442L291.514 274.193Z" fill="#F88642"/>
<path d="M291.515 274.193C298.959 289.95 296.701 309.362 285.41 322.772L283.32 320.754C292.419 306.335 297.006 291.983 288.891 275.442L291.515 274.193Z" fill="#652E58"/>
<path d="M267.607 336.541C252.235 351.201 210.735 364.268 228.141 325.525C238.262 340.241 252.409 338.225 267.607 336.541Z" fill="#CEEB71"/>
<path d="M76.8805 277.402C88.8238 291.254 101.287 301.994 117.511 310.882C122.627 313.685 130.137 316.311 135.183 319.537C136.009 320.065 137.402 323.88 137.842 325.044C152.925 362.097 122.153 353.945 102.821 339.948C81.7871 328.239 65.4169 301.085 76.8805 277.402Z" fill="#F88642"/>
<path d="M102.82 339.952C118.795 341.918 130.338 340.856 137.841 325.049C152.924 362.101 122.152 353.95 102.82 339.952Z" fill="#CEEB71"/>
<path d="M296.772 119.479C304.458 133.927 309.859 147.909 312.846 164.114C326.864 148.972 343.496 132.642 365.212 130.897C378.646 129.817 387.885 137.675 386.932 151.283C384.281 189.122 342.315 234.1 306.419 242.41C300.736 254.978 297.469 261.145 289.96 272.746L287.541 270.514C291.994 264.443 295.875 257.971 299.134 251.183C315.929 216.741 316.644 180.905 304.388 144.894L303.094 144.779C301.552 143.278 302.089 142.59 301.924 139.687C301.118 133.553 296.676 125.608 293.765 119.944L296.772 119.479Z" fill="#5C2B59"/>
<path d="M362.449 134.172C399.637 130.272 379.821 176.931 367.585 192.238C354.73 208.318 346.571 218.407 329.099 229.993C326.354 231.529 324.01 232.292 321.081 233.378C318.294 231.485 314.578 228.245 311.885 226.036C315.811 206.181 317.322 189.087 313.468 168.887C325.693 152.814 342.096 138.181 362.449 134.172Z" fill="#CEEB71"/>
<path d="M23.6596 215.337C23.3414 215.066 23.3046 215.058 22.9835 214.631C8.97348 196.03 -1.59518 169.501 0.198796 145.901C0.738332 139.068 4.17062 128.819 10.1499 124.787C26.4457 113.803 44.1978 136.172 52.045 147.262L50.941 150.782C50.8272 153.924 50.7807 154.196 49.8459 157.218C51.8489 159.246 50.7779 158.875 53.09 159.488C47.3596 165.566 49.3294 200.622 50.1844 209.761L47.5325 209.085C38.8834 212.847 30.7665 208.115 24.2251 202.609C24.0348 206.739 24.8692 209.269 25.8453 213.227L25.8177 214.653L23.6596 215.337Z" fill="#CEEB71"/>
<path d="M23.6596 215.337C23.3414 215.066 23.3046 215.058 22.9835 214.631C8.97348 196.03 -1.59518 169.501 0.198796 145.901C0.738332 139.068 4.17062 128.819 10.1499 124.787C26.4457 113.803 44.1978 136.172 52.045 147.262L50.941 150.782C43.987 140.447 38.3063 133.425 27.5208 127.151C12.0731 144.408 14.5465 183.157 24.2251 202.609C24.0348 206.739 24.8692 209.269 25.8453 213.227L25.8177 214.653L23.6596 215.337Z" fill="#F88642"/>
<path d="M23.6596 215.337C23.3414 215.066 23.3046 215.058 22.9835 214.631C8.97348 196.03 -1.59518 169.501 0.198796 145.901C0.738332 139.068 4.17062 128.819 10.1499 124.787C26.4457 113.803 44.1978 136.172 52.045 147.262L50.941 150.782C43.987 140.447 38.3063 133.425 27.5208 127.151C17.1891 122.991 9.11018 125.394 5.48998 136.451C-1.30981 157.218 6.95204 179.832 16.1349 198.502C18.171 202.577 22.3991 210.411 25.8453 213.227L25.8177 214.653L23.6596 215.337Z" fill="#652E58"/>
<path d="M47.5299 209.086C44.3307 192.55 46.133 173.522 49.8433 157.219C51.8464 159.247 50.7753 158.876 53.0874 159.489C47.3571 165.567 49.3268 200.622 50.1818 209.762L47.5299 209.086Z" fill="#652E58"/>
<path d="M24.2257 202.611C30.7671 208.118 38.884 212.849 47.5331 209.088L50.185 209.763C53.6279 228.065 57.5171 241.728 67.2985 258.053C70.3802 263.196 74.4275 268.575 77.2229 273.24C77.1762 274.624 77.2477 275.139 77.7394 276.435C76.3548 275.403 75.812 274.96 74.5719 273.762C67.7785 266.625 61.5521 253.918 57.5192 245.045C43.9567 238.085 32.3253 227.881 23.6602 215.34L25.8183 214.655L25.8459 213.23C24.8698 209.272 24.0354 206.742 24.2257 202.611Z" fill="#591868"/>
<path d="M174.407 41.5419L174.55 40.4827C176.178 27.737 169.634 18.0084 170.886 8.12515C172.501 -4.63375 187.79 -0.82433 193.113 8.95385C202.007 25.2931 196.783 35.6418 189.36 50.0771C190.405 51.4441 189.76 50.8737 191.607 51.4471C189.364 51.8687 187.204 51.9942 185.454 53.3394L185.272 54.6014C179.989 59.2483 168.823 67.2553 161.289 65.5366C161.109 62.5311 161.563 61.8599 163.982 59.8334L167.151 61.803C167.447 61.1727 173.536 52.1372 174.544 50.5133C175.664 47.3663 176.013 46.326 176.613 43.071L176.325 39.1142L174.407 41.5419Z" fill="#CEEB71"/>
<path d="M174.407 41.5419L174.55 40.4827C176.178 27.737 169.634 18.0084 170.886 8.12515C172.501 -4.63375 187.79 -0.82433 193.113 8.95385C202.007 25.2931 196.783 35.6418 189.36 50.0771C190.405 51.4441 189.76 50.8737 191.607 51.4471C189.364 51.8687 187.204 51.9942 185.454 53.3394L185.272 54.6014C179.989 59.2483 168.823 67.2553 161.289 65.5366C161.109 62.5311 161.563 61.8599 163.982 59.8334L167.151 61.803C167.447 61.1727 173.536 52.1372 174.544 50.5133C175.98 51.0473 176.108 51.1057 177.689 51.1786C179.278 52.5705 179.78 53.2037 181.131 54.7823C191.309 44.2644 198.536 28.1207 192.134 13.5526C184.989 -2.70204 169.392 0.560285 174.948 19.0516C177.129 26.3115 178.409 34.6044 176.816 42.1431L176.613 43.071L176.325 39.1142L174.407 41.5419Z" fill="#652E58"/>
<path d="M174.545 50.5156C175.981 51.0496 176.109 51.108 177.691 51.1809C179.28 52.5728 179.781 53.206 181.132 54.7846C176.971 58.1301 173.038 61.1998 167.829 62.7041C167.603 62.4035 167.378 62.1044 167.152 61.8053C167.449 61.175 173.537 52.1395 174.545 50.5156Z" fill="#EEEAA0"/>
<path d="M72.4763 190.656C96.0945 220.474 124.279 238.945 162.833 243.326C196.049 247.077 229.398 237.529 255.595 216.768C262.852 210.933 268.968 204.616 275.074 197.623L276.009 197.674C277.224 196.389 277.64 195.925 279.029 194.852L279.961 196.065C274.41 204.079 264.595 213.844 256.966 219.852C229.743 241.066 195.21 250.602 160.958 246.361C122.457 241.711 94.3306 223.301 70.7109 193.462L72.4763 190.656Z" fill="#762F54"/>
<path d="M191.608 51.4473C234.816 52.4073 275.921 82.8521 296.771 119.479L293.764 119.944C275.728 90.1135 251.731 69.7883 218.143 59.5651C212.332 57.7968 189.909 52.1491 185.273 54.6016L185.456 53.3396C187.205 51.9944 189.366 51.8689 191.608 51.4473Z" fill="#652E58"/>
<path d="M53.0547 145.313C64.1053 110.644 86.0552 85.0755 117.338 67L120.296 68.707C90.7269 85.9625 66.4499 111.728 56.4314 145.036L53.0547 145.313Z" fill="#652E58"/>
<path d="M174.409 41.541L176.328 39.1133L176.615 43.0701C176.016 46.3251 175.667 47.3654 174.547 50.5124C173.538 52.1363 167.45 61.1718 167.154 61.8021L163.985 59.8325L166.325 57.6148L166.294 56.3805C160.874 53.8565 140.475 60.5109 134.803 62.5695C129.879 64.3991 125.038 66.4446 120.297 68.7032L117.338 66.9962C135.457 57.1771 150.574 53.6011 170.628 51.56C172.915 47.2589 173.209 46.0669 174.409 41.541Z" fill="#762F54"/>
<path d="M301.924 139.686C302.088 142.589 301.552 143.276 303.094 144.777L304.388 144.893C300.173 158.095 290.212 186.893 279.96 196.058L279.028 194.846C277.639 195.918 277.223 196.382 276.007 197.667L275.072 197.616C277.954 193.013 281.768 188.603 284.632 183.93C293.202 169.955 298.352 155.573 301.924 139.686Z" fill="#762F54"/>
<path d="M55.9129 158.918C60.7804 170.537 65.1999 180.314 72.4725 190.654L70.7072 193.46C63.19 182.882 57.5566 172.597 53.3555 160.295C55.0451 159.735 54.4782 159.998 55.9129 158.918Z" fill="#762F54"/>
<path d="M53.0543 145.31L56.431 145.033C54.3025 151.316 54.0435 152.223 55.8034 158.504L55.915 158.916C54.4802 159.995 55.0472 159.733 53.3575 160.293L53.0898 159.489C50.7777 158.876 51.8488 159.247 49.8457 157.219C50.7805 154.197 50.827 153.924 50.9408 150.783L52.0448 147.263L53.0543 145.31Z" fill="#5C2B59"/>
<path d="M154.594 194.473C146.424 188.433 141.47 182.161 142.346 172.239C144.812 144.326 167.6 162.95 179.352 162.702C190.583 162.464 197.668 147.512 209.737 162.987C215.621 173.163 212.143 187.308 202.344 193.485C198.931 197.229 199.498 201.787 196.123 207.341C192.141 212.995 185.71 216.854 178.762 217.292C172.477 217.748 166.281 215.595 161.635 211.338C156.348 206.402 154.978 201.402 154.594 194.473Z" fill="#652E58"/>
<path d="M154.481 191.209C153.496 190.227 152.526 189.231 151.572 188.22C145.514 181.762 141.21 168.554 149.86 161.335C157.902 154.622 171.455 168.223 180.449 165.659C191.525 162.504 199.594 152.418 208.093 166.031L209.74 162.985C215.624 173.162 212.146 187.306 202.348 193.484L200.41 190.699L199.078 190.327C196.754 183.541 188.335 173.713 181.498 171.294C169.667 167.107 157.727 181.312 154.481 191.209Z" fill="#CEEB71"/>
<path d="M208.089 166.031L209.737 162.984C215.621 173.161 212.142 187.306 202.344 193.483L200.406 190.698C208.308 183.206 211.919 176.991 208.089 166.031Z" fill="#762F54"/>
<path d="M154.874 169.356C156.002 168.354 157.585 168.043 159.009 168.544C160.433 169.044 161.473 170.277 161.725 171.765C161.979 173.252 161.404 174.761 160.227 175.703C158.469 177.111 155.91 176.86 154.456 175.138C153.005 173.418 153.19 170.853 154.874 169.356Z" fill="#5C2B59"/>
<path d="M194.991 168.524C196.845 167.367 199.283 167.892 200.495 169.71C201.709 171.528 201.258 173.98 199.478 175.248C198.278 176.103 196.706 176.238 195.379 175.598C194.05 174.959 193.174 173.648 193.094 172.176C193.014 170.704 193.74 169.304 194.991 168.524Z" fill="#652E58"/>
<path d="M167.221 178.79C174.218 170.863 178.91 171.381 186.357 178.291L188.58 180.329C191.917 183.672 194.975 186.123 195.849 190.872C194.701 191.482 193.522 191.995 192.558 192.822C192.384 198.41 191.889 200.243 188.446 204.664L186.916 203.353C180.945 207.387 177.537 207.884 170.661 205.301L169.539 207.446C155.537 194.963 167.358 191.756 166.071 180.533L167.221 178.79Z" fill="#652E58"/>
<path d="M167.219 178.79C174.216 170.863 178.908 171.381 186.355 178.291C186.012 182.097 185.782 184.829 182.607 187.418C180.728 188.972 178.268 189.632 175.865 189.226C170.297 188.302 168.479 184.553 167.41 179.636L167.219 178.79Z" fill="#CEEB71"/>
<path d="M170.661 205.297C168.192 203.272 167.565 202.961 165.945 200.309L166.29 199.277C174.638 199.422 178.109 200.021 187.562 199.606L188.145 200.315L186.915 203.349C180.945 207.383 177.537 207.88 170.661 205.297Z" fill="#E98253"/>
<path d="M192.557 192.822C189.356 188.097 186.635 186.001 188.58 180.328C191.917 183.671 194.975 186.122 195.849 190.871C194.701 191.481 193.522 191.994 192.557 192.822Z" fill="#E7E67A"/>
<path d="M178.279 192.562C180.93 191.464 183.263 190.111 186.023 190.574C188.133 192.211 188.008 192.589 188.889 195.097C187.478 195.429 186.057 195.718 184.629 195.963C178.988 196.89 171.759 198.039 167.002 194.71C166.295 192.345 166.696 192.821 168.041 189.84C171.444 190.788 174.856 191.696 178.279 192.562Z" fill="#EEEAA0"/>
<path d="M166.068 180.535C167.355 191.758 155.534 194.965 169.536 207.448L170.658 205.303C177.534 207.885 180.942 207.389 186.912 203.355L188.443 204.665C191.886 200.245 192.381 198.412 192.554 192.824C193.519 191.997 194.698 191.483 195.846 190.874L196.752 194.003C197.236 191.856 197.47 191.943 199.073 190.331L200.405 190.703L202.343 193.488C198.93 197.232 199.496 201.79 196.122 207.344L194.549 205.531C190.532 211.155 184.664 214.658 177.651 214.632C171.971 214.576 166.559 212.21 162.662 208.078C153.601 198.351 157.324 188.395 166.068 180.535Z" fill="url(#paint0_linear_1494_2154)"/>
<path d="M199.075 190.332L200.407 190.704L202.345 193.489C198.932 197.233 199.498 201.791 196.124 207.345L194.551 205.532C196.412 201.194 196.66 198.632 196.754 194.004C197.238 191.857 197.472 191.944 199.075 190.332Z" fill="#5C2B59"/>
<path d="M186.912 203.354L188.442 204.664C181.995 209.88 177.336 210.65 169.535 207.446L170.657 205.301C177.533 207.884 180.942 207.388 186.912 203.354Z" fill="#5C2B59"/>
<path d="M208.558 103.676C216.308 97.5424 225.285 96.3781 234.245 100.482C255.912 111.768 258.43 145.294 238.018 157.892C234.894 160.19 226.947 162.662 223.126 162.183C195.994 158.782 188.215 119.837 208.558 103.676Z" fill="white"/>
<path d="M234.245 100.484C255.912 111.77 258.431 145.296 238.018 157.894L235.778 155.523C224.416 152.142 222.671 144.928 220.713 134.441C224.877 132.343 230.447 130.17 234.963 128.037C230.619 126.074 225.031 124.021 220.521 122.223C220.683 121.513 220.851 120.804 221.022 120.096C223.126 111.427 224.268 108.947 231.64 104.518L232.849 103.799L232.692 102.629L234.245 100.484Z" fill="#591868"/>
<path d="M208.558 103.674L209.392 106.965C186.88 131.587 210.764 169.994 235.778 155.519L238.018 157.89C234.894 160.188 226.947 162.659 223.126 162.181C195.994 158.78 188.215 119.835 208.558 103.674Z" fill="#762F54"/>
<path d="M208.557 103.676C216.307 97.5424 225.284 96.3781 234.244 100.482L232.691 102.627C222.312 99.9847 218.176 100.427 209.391 106.967L208.557 103.676Z" fill="#652E58"/>
<path d="M109.077 110.317C112.14 105.059 117.594 100.465 123.507 98.8713C130.017 97.1483 136.954 98.2396 142.62 101.877C161.539 113.811 162.417 146.43 143.09 158.655C114.392 176.855 90.6334 128.878 109.077 110.317Z" fill="white"/>
<path d="M109.074 110.317C112.138 105.059 117.592 100.465 123.505 98.8713C130.015 97.1483 136.951 98.2396 142.618 101.877C161.537 113.811 162.415 146.43 143.088 158.655C141.635 157.587 141.728 157.485 140.812 155.889C133.584 153.245 131.954 150.814 128.053 144.183C121.931 133.775 134.068 131.386 141.28 128.466C136.235 126.548 131.239 124.503 126.298 122.332C127.513 117.682 129.116 109.264 134.071 107.412C136.661 106.444 137.962 105.8 138.76 103.261L137.958 102.192C132.866 100.362 124.858 101.988 119.721 103.728C112.943 104.154 111.136 112.087 109.074 110.317Z" fill="#591868"/>
<path d="M109.077 110.321C111.138 112.091 112.946 104.158 119.723 103.732C111.144 110.598 107.779 114.358 106.564 125.381C104.309 145.836 119.224 165.931 140.814 155.893C141.73 157.489 141.637 157.591 143.09 158.659C114.392 176.859 90.6334 128.883 109.077 110.321Z" fill="#762F54"/>
<path d="M244.252 160.323C257.903 159.506 267.56 169.801 250.627 175.727C245.561 175.939 232.845 175.946 234.982 166.048C235.659 162.92 241.358 161.239 244.252 160.323Z" fill="#CEEB71"/>
<path d="M102.447 161.134C108.585 160.953 116.122 161.439 118.041 168.468C117.4 174.005 112.955 175.191 108.266 176.305C101.859 176.399 95.3885 175.787 93.1504 168.753C93.5531 163.388 97.9695 162.298 102.447 161.134Z" fill="#CEEB71"/>
<path d="M221.867 83.7524C226.963 83.7159 231.201 84.0486 234.283 88.5714L233.779 89.5562C231.387 89.8582 229.617 88.5131 227.369 87.3386C222.086 87.1299 216.091 89.4191 213.123 88.0039C215.246 84.7459 218.278 84.5081 221.867 83.7524Z" fill="#762F54"/>
<path d="M124.229 84.5388C130.359 83.7772 132.738 83.8385 137.662 87.2351L137.692 88.3162C135.227 89.1318 132.422 87.9514 129.787 87.2117C124.662 87.5837 122.698 90.1064 116.87 90.1078L116.848 89.1945C119.432 86.4399 120.771 86.1102 124.229 84.5388Z" fill="#762F54"/>
<path d="M314.683 66.0889C315.06 63.4919 315.074 60.8861 316.771 59.0273C320.054 60.7417 321.241 72.9768 325.36 77.5756C330.004 82.7608 337.883 81.6607 340.955 84.4255L340.69 85.8057C339.883 86.1749 339.603 86.3966 338.752 86.5454C326.84 89.6385 324.044 91.2448 320.076 103.23C319.642 105.87 319.658 108.156 317.892 109.997L316.793 109.703C314.832 106.76 314.759 104.125 314.186 100.587C310.611 92.7608 309.24 91.1135 301.182 87.8031C302.512 86.3514 302.431 86.2303 303.44 84.4766L304.091 84.4343L302.654 83.3794L304.054 81.1895C311.451 76.5192 312.314 74.1367 314.683 66.0889Z" fill="#FBE4B6"/>
<path d="M301.182 87.8011C302.512 86.3494 302.431 86.2283 303.44 84.4746C311.152 92.251 312.444 88.5335 317.452 101.06C320.932 92.7355 323.077 88.7028 332.052 85.4726C335.2 86.4312 335.445 86.4851 338.752 86.5435C326.84 89.6365 324.044 91.2429 320.076 103.229C319.642 105.868 319.658 108.154 317.892 109.995L316.793 109.701C314.832 106.758 314.759 104.123 314.186 100.585C310.611 92.7588 309.24 91.1116 301.182 87.8011Z" fill="#652E58"/>
<path d="M314.188 100.584L315.051 100.51L315.565 101.302C317.359 101.699 318.845 101.797 320.077 103.228C319.644 105.867 319.66 108.153 317.893 109.995L316.795 109.7C314.834 106.757 314.761 104.122 314.188 100.584Z" fill="#602870"/>
<path d="M314.684 66.0889C315.06 63.4919 315.075 60.8861 316.771 59.0273C320.054 60.7417 321.242 72.9768 325.361 77.5756C330.004 82.7608 337.883 81.6607 340.956 84.4255L340.69 85.8057C339.883 86.1749 339.603 86.3966 338.753 86.5454C335.445 86.4871 335.2 86.4331 332.053 85.4746C325.992 81.795 322.453 78.982 319.087 72.1919C318.035 70.069 318.795 70.7883 317.197 69.128L314.684 66.0889Z" fill="#5C2B59"/>
<path d="M314.686 66.0859L317.199 69.125C313.79 76.1778 311.747 81.2157 304.093 84.4313L302.656 83.3765L304.057 81.1865C311.454 76.5163 312.316 74.1337 314.686 66.0859Z" fill="#652E58"/>
<path d="M301.184 87.805C298.697 87.1893 295.828 87.0041 294.854 84.5588C297.097 82.6636 301.075 81.9778 304.057 81.1914L302.656 83.3814L304.093 84.4362L303.443 84.4785C302.433 86.2322 302.515 86.3533 301.184 87.805Z" fill="#5C2B59"/>
<defs>
<linearGradient id="paint0_linear_1494_2154" x1="178.137" y1="185.662" x2="174.088" y2="212.707" gradientUnits="userSpaceOnUse">
<stop stop-color="#E5E678"/>
<stop offset="1" stop-color="#F4D57D"/>
</linearGradient>
</defs>
</svg>
