<svg width="119" height="113" viewBox="0 0 119 113" fill="none" xmlns="http://www.w3.org/2000/svg">
<path d="M1.5 1.5C1.5 1.5 26.4279 21.5431 36.8977 19.8301C47.3667 18.117 42.5476 7.32448 34.9034 13.3203C27.2586 19.3161 28.8795 28.8768 32.9092 34.9052C46.536 55.291 77.2803 53.2353 85.922 43.2994C91.1886 37.244 88.5809 27.8816 75.2861 27.8816C44.9626 27.8816 14.2961 61.972 21.6081 85.7838C28.6576 108.739 56.1749 101.887 82.4321 101.887C108.689 101.887 116.5 106.341 116.5 106.341M116.5 106.341C116.5 106.341 112.578 100.418 110.75 96.1349M116.5 106.341C116.5 106.341 109.677 109.102 106.353 111.5" stroke="#212121" stroke-width="3" stroke-miterlimit="16" stroke-linecap="round"/>
</svg>
