<svg width="123" height="113" viewBox="0 0 123 113" fill="none" xmlns="http://www.w3.org/2000/svg">
<path d="M121.305 1.5C121.305 1.5 95.5097 21.5431 84.6758 19.8301C73.8426 18.117 78.8294 7.32448 86.7394 13.3203C94.6501 19.3161 92.9729 28.8768 88.803 34.9052C74.7022 55.291 42.8885 53.2353 33.9463 43.2994C28.4965 37.244 31.1949 27.8816 44.9521 27.8816C76.3304 27.8816 108.063 61.972 100.497 85.7837C93.2025 108.739 64.7281 101.887 37.5576 101.887C10.387 101.887 2.30469 106.341 2.30469 106.341M2.30469 106.341C2.30469 106.341 6.36307 100.418 8.25469 96.1349M2.30469 106.341C2.30469 106.341 9.36538 109.102 12.8047 111.5" stroke="#212121" stroke-width="3" stroke-miterlimit="16" stroke-linecap="round"/>
</svg>
